<?xml version="1.0" encoding="utf-8"?>
<!-- Generator: Adobe Illustrator 23.0.0, SVG Export Plug-In . SVG Version: 6.00 Build 0)  -->
<svg version="1.1" id="Слой_1" xmlns="http://www.w3.org/2000/svg" xmlns:xlink="http://www.w3.org/1999/xlink" x="0px" y="0px"
	 viewBox="0 0 286 60" style="enable-background:new 0 0 286 60;" xml:space="preserve">
<style type="text/css">
	.st0{fill:#EBCA88;}
	.st1{fill:#203979;}
	.st2{fill-rule:evenodd;clip-rule:evenodd;fill:#EBCA88;}
	.st3{fill-rule:evenodd;clip-rule:evenodd;fill:#E4C168;}
	.st4{fill-rule:evenodd;clip-rule:evenodd;fill:#FFFFFF;}
	.st5{fill:#E4C168;}
</style>
<g id="Frame">
	<g>
		<g id="Group">
			<path id="Vector" class="st0" d="M82.4,43.1H80l-2.4-4v4h-2.2v-7.9h2.2V39l2.3-3.9h2.4L79.8,39L82.4,43.1z"/>
			<path id="Vector_2" class="st0" d="M90.7,43.1h-2.2v-6.2h-1.5c-0.1,0.9-0.2,1.8-0.4,2.8c-0.1,0.9-0.3,1.6-0.4,2
				c-0.1,0.4-0.3,0.7-0.5,0.9c-0.2,0.2-0.4,0.4-0.7,0.5c-0.3,0.1-0.6,0.2-1.1,0.2c-0.3,0-0.6,0-0.8-0.1v-1.7
				c0.2,0.1,0.4,0.1,0.5,0.1c0.2,0,0.4-0.1,0.4-0.2c0.1-0.1,0.2-0.4,0.3-0.8c0.1-0.4,0.2-1.1,0.4-2.1c0.1-1,0.3-2.1,0.4-3.2h5.6
				L90.7,43.1L90.7,43.1z"/>
			<path id="Vector_3" class="st0" d="M97.9,43.1l-0.4-1.5h-2.6l-0.4,1.5h-2.4l2.6-8h2.9l2.7,8H97.9z M97.1,39.8l-0.4-1.3
				c-0.1-0.3-0.2-0.7-0.3-1.1c-0.1-0.5-0.2-0.8-0.2-1c0,0.2-0.1,0.5-0.2,0.9c-0.1,0.4-0.3,1.3-0.6,2.5L97.1,39.8L97.1,39.8z"/>
			<path id="Vector_4" class="st0" d="M105.3,36.8c-0.5,0-0.9,0.2-1.2,0.6c-0.3,0.4-0.4,1-0.4,1.7c0,1.5,0.6,2.3,1.8,2.3
				c0.3,0,0.7-0.1,1-0.1c0.3-0.1,0.7-0.2,1-0.3v1.8c-0.7,0.3-1.4,0.4-2.3,0.4c-1.2,0-2.2-0.3-2.8-1c-0.6-0.7-1-1.7-1-3
				c0-0.8,0.1-1.6,0.5-2.2c0.3-0.6,0.8-1.1,1.3-1.4c0.6-0.3,1.3-0.5,2.1-0.5c0.9,0,1.7,0.2,2.5,0.5l-0.7,1.7
				c-0.3-0.1-0.6-0.3-0.9-0.3C105.9,36.9,105.6,36.8,105.3,36.8z"/>
			<path id="Vector_5" class="st0" d="M109.6,35.1h1.9v3.4c0,0.4,0,1.1-0.1,2.2h0.1l3.2-5.6h2.7v8h-1.9v-3.3c0-0.5,0-1.3,0.1-2.3
				h-0.1l-3.2,5.6h-2.7L109.6,35.1L109.6,35.1z"/>
			<path id="Vector_6" class="st0" d="M126.7,43.1h-2.4l-2.4-4v4h-2.2v-7.9h2.2V39l2.3-3.9h2.4l-2.5,3.8L126.7,43.1z"/>
			<path id="Vector_7" class="st0" d="M133,43.1l-0.4-1.5H130l-0.4,1.5h-2.4l2.6-8h2.9l2.7,8H133z M132.2,39.8l-0.4-1.3
				c-0.1-0.3-0.2-0.7-0.3-1.1c-0.1-0.5-0.2-0.8-0.2-1c0,0.2-0.1,0.5-0.2,0.9c-0.1,0.4-0.3,1.3-0.6,2.5L132.2,39.8L132.2,39.8z"/>
			<path id="Vector_8" class="st0" d="M138.7,41.5l0.1,0.1c-0.3,1.4-0.7,2.4-1,3.1h-1.5c0.1-0.5,0.2-1.1,0.3-1.7
				c0.1-0.6,0.2-1.1,0.2-1.5H138.7z"/>
			<path id="Vector_9" class="st0" d="M144.4,43.1v-7.9h2.2v6.2h2v-6.2h2.1v6.2h2v-6.2h2.2v6.2h1.7v4.2h-2.1v-2.5L144.4,43.1
				L144.4,43.1z"/>
			<path id="Vector_10" class="st0" d="M165.8,39.1c0,1.3-0.3,2.4-1,3.1c-0.7,0.7-1.6,1-2.9,1c-1.3,0-2.2-0.3-2.9-1
				c-0.7-0.7-1-1.7-1-3.1c0-1.3,0.3-2.3,1-3c0.7-0.7,1.6-1,2.9-1s2.2,0.3,2.9,1C165.4,36.7,165.8,37.8,165.8,39.1z M160.2,39.1
				c0,1.5,0.6,2.3,1.6,2.3c0.6,0,1-0.2,1.2-0.5c0.3-0.4,0.4-1,0.4-1.8c0-0.8-0.1-1.4-0.4-1.8c-0.3-0.4-0.7-0.6-1.2-0.6
				C160.8,36.8,160.2,37.5,160.2,39.1z"/>
			<path id="Vector_11" class="st0" d="M171.3,35.1h2.8c1.1,0,1.9,0.2,2.5,0.5c0.5,0.3,0.8,0.8,0.8,1.5c0,0.4-0.1,0.8-0.4,1.2
				c-0.2,0.3-0.5,0.5-0.9,0.6V39c0.5,0.1,0.9,0.3,1.1,0.7c0.2,0.3,0.3,0.7,0.3,1.2c0,0.7-0.3,1.3-0.8,1.7c-0.6,0.4-1.3,0.6-2.2,0.6
				h-3.1L171.3,35.1L171.3,35.1z M173.5,38.2h0.6c0.3,0,0.6-0.1,0.7-0.2c0.2-0.1,0.3-0.3,0.3-0.6c0-0.4-0.4-0.7-1-0.7h-0.6V38.2z
				 M173.5,39.8v1.7h0.8c0.7,0,1-0.3,1-0.8c0-0.3-0.1-0.5-0.3-0.6c-0.2-0.1-0.4-0.2-0.8-0.2L173.5,39.8L173.5,39.8z"/>
			<path id="Vector_12" class="st0" d="M179.4,35.1h1.9v3.4c0,0.4,0,1.1-0.1,2.2h0.1l3.2-5.6h2.7v8h-1.9v-3.3c0-0.5,0-1.3,0.1-2.3h0
				l-3.2,5.6h-2.7V35.1z"/>
			<path id="Vector_13" class="st0" d="M196.1,43.1h-2.2v-6.2h-2.2v6.2h-2.2v-8h6.6V43.1z"/>
			<path id="Vector_14" class="st0" d="M203.2,43.1h-4.8v-7.9h4.8v1.7h-2.6v1.2h2.4v1.7h-2.4v1.5h2.6V43.1z"/>
			<path id="Vector_15" class="st0" d="M211,37.7c0,0.9-0.3,1.6-0.8,2c-0.5,0.5-1.3,0.7-2.2,0.7h-0.6v2.7h-2.2v-7.9h2.8
				c1,0,1.8,0.2,2.3,0.7C210.8,36.2,211,36.8,211,37.7z M207.4,38.7h0.4c0.3,0,0.6-0.1,0.8-0.3c0.2-0.2,0.3-0.4,0.3-0.7
				c0-0.5-0.3-0.8-0.9-0.8h-0.6L207.4,38.7L207.4,38.7z"/>
			<path id="Vector_16" class="st0" d="M217.7,43.1h-4.8v-7.9h4.8v1.7h-2.6v1.2h2.4v1.7h-2.4v1.5h2.6V43.1z"/>
			<path id="Vector_17" class="st0" d="M227.7,45.6h-2.1v-2.5h-4.7v2.5h-2.1v-4.2h0.7c0.5-0.8,0.9-1.7,1.2-2.8s0.5-2.2,0.6-3.4h5.4
				v6.2h1.1L227.7,45.6L227.7,45.6z M224.4,41.3v-4.4H223c-0.1,1.6-0.6,3-1.2,4.4L224.4,41.3L224.4,41.3z"/>
			<path id="Vector_18" class="st0" d="M231,38.9l-2.3-3.8h2.3l2.2,3.9v-3.8h2.1V39l2.2-3.9h2.3l-2.4,3.8l2.6,4.2h-2.4l-2.4-4v4
				h-2.1v-4l-2.4,4h-2.4L231,38.9z"/>
			<path id="Vector_19" class="st0" d="M246.4,43.1l-0.4-1.5h-2.6l-0.4,1.5h-2.4l2.6-8h2.9l2.7,8H246.4z M245.6,39.8l-0.4-1.3
				c-0.1-0.3-0.2-0.7-0.3-1.1c-0.1-0.5-0.2-0.8-0.2-1c0,0.2-0.1,0.5-0.2,0.9c-0.1,0.4-0.3,1.3-0.6,2.5L245.6,39.8L245.6,39.8z"/>
			<path id="Vector_20" class="st0" d="M254,36.8c-1,0-1.6,0.5-1.8,1.5h3.2V40h-3.2c0.1,0.5,0.2,0.8,0.6,1s0.7,0.4,1.3,0.4
				c0.3,0,0.7,0,1-0.1c0.4-0.1,0.8-0.2,1.4-0.4v1.8c-0.4,0.2-0.8,0.3-1.2,0.4c-0.4,0.1-0.8,0.1-1.3,0.1c-1.3,0-2.3-0.3-2.9-1
				c-0.7-0.7-1-1.7-1-3c0-0.8,0.2-1.5,0.5-2.2c0.4-0.6,0.8-1.1,1.5-1.4c0.6-0.3,1.4-0.5,2.2-0.5c0.5,0,0.9,0.1,1.4,0.1
				c0.4,0.1,0.9,0.3,1.3,0.5l-0.7,1.7C255.3,37,254.6,36.8,254,36.8z"/>
			<path id="Vector_21" class="st0" d="M268.8,43.1h-2.2v-2.9c-0.9,0.3-1.8,0.5-2.5,0.5c-0.8,0-1.4-0.2-1.8-0.5
				c-0.4-0.4-0.6-0.9-0.6-1.6v-3.4h2.2v2.7c0,0.4,0.1,0.7,0.2,0.8c0.1,0.2,0.4,0.3,0.8,0.3c0.5,0,1.1-0.1,1.7-0.4v-3.4h2.2V43.1z"/>
			<path id="Vector_22" class="st0" d="M276.1,43.1l-0.4-1.5H273l-0.4,1.5h-2.4l2.6-8h2.9l2.7,8H276.1z M275.2,39.8l-0.3-1.3
				c-0.1-0.3-0.2-0.7-0.3-1.1c-0.1-0.5-0.2-0.8-0.2-1c0,0.2-0.1,0.5-0.2,0.9c-0.1,0.4-0.3,1.3-0.6,2.5L275.2,39.8L275.2,39.8z"/>
			<path id="Vector_23" class="st0" d="M283.5,36.8c-0.5,0-0.9,0.2-1.2,0.6c-0.3,0.4-0.4,1-0.4,1.7c0,1.5,0.6,2.3,1.8,2.3
				c0.4,0,0.7-0.1,1-0.1c0.3-0.1,0.7-0.2,1-0.3v1.8c-0.7,0.3-1.4,0.4-2.3,0.4c-1.2,0-2.2-0.3-2.8-1s-1-1.7-1-3
				c0-0.8,0.1-1.6,0.5-2.2c0.3-0.6,0.8-1.1,1.3-1.4c0.6-0.3,1.3-0.5,2.1-0.5c0.9,0,1.7,0.2,2.5,0.5l-0.7,1.7
				c-0.3-0.1-0.6-0.3-0.9-0.3C284.1,36.8,283.8,36.8,283.5,36.8z"/>
		</g>
		<g id="Group_2">
			<path id="Vector_24" class="st1" d="M286,30.3H75.4v0.3H286V30.3z"/>
		</g>
		<g id="Group_3">
			<path id="Vector_25" class="st1" d="M83.4,26.6h-2.8L77.9,22v4.6h-2.5v-9.1h2.5v4.4l2.6-4.4h2.7l-2.8,4.3L83.4,26.6z"/>
			<path id="Vector_26" class="st1" d="M90.6,26.6l-0.4-1.7h-3l-0.5,1.7H84l3-9.1h3.3l3,9.1H90.6z M89.6,22.9l-0.4-1.5
				c-0.1-0.3-0.2-0.7-0.3-1.3c-0.1-0.5-0.2-0.9-0.3-1.1c0,0.2-0.1,0.5-0.2,1c-0.1,0.5-0.4,1.4-0.7,2.9H89.6z"/>
			<path id="Vector_27" class="st1" d="M101.6,20.4c0,1-0.3,1.8-0.9,2.3c-0.6,0.5-1.5,0.8-2.6,0.8h-0.7v3h-2.5v-9.1h3.2
				c1.2,0,2,0.3,2.6,0.7C101.3,18.8,101.6,19.5,101.6,20.4z M97.4,21.6h0.4c0.4,0,0.7-0.1,0.9-0.3c0.2-0.2,0.3-0.5,0.3-0.9
				c0-0.6-0.3-0.9-1-0.9h-0.6L97.4,21.6L97.4,21.6z"/>
			<path id="Vector_28" class="st1" d="M109.3,26.6l-0.4-1.7h-3l-0.5,1.7h-2.7l3-9.1h3.3l3,9.1H109.3z M108.3,22.9l-0.4-1.5
				c-0.1-0.3-0.2-0.7-0.3-1.3c-0.1-0.5-0.2-0.9-0.3-1.1c0,0.2-0.1,0.5-0.2,1c-0.1,0.5-0.4,1.4-0.7,2.9H108.3z"/>
			<path id="Vector_29" class="st1" d="M120.3,19.7c0,1.2-0.7,1.9-2.2,2.2v0.1c0.8,0.1,1.5,0.3,1.9,0.7c0.4,0.4,0.6,0.9,0.6,1.5
				c0,0.5-0.1,1-0.5,1.4c-0.3,0.4-0.8,0.7-1.3,1c-0.6,0.2-1.3,0.3-2.1,0.3c-1.5,0-2.6-0.2-3.5-0.5v-2.1c0.3,0.2,0.8,0.3,1.4,0.4
				c0.6,0.1,1.1,0.2,1.5,0.2c0.7,0,1.2-0.1,1.5-0.2c0.3-0.1,0.4-0.4,0.4-0.7c0-0.6-0.7-0.9-2.1-0.9h-1.1v-2h1c0.5,0,0.9,0,1.1-0.1
				c0.3-0.1,0.5-0.1,0.6-0.2c0.1-0.1,0.2-0.3,0.2-0.5c0-0.5-0.4-0.7-1.3-0.7c-0.8,0-1.6,0.2-2.2,0.6l-1-1.7c0.6-0.3,1.1-0.6,1.7-0.7
				c0.6-0.1,1.3-0.2,2-0.2c1,0,1.8,0.2,2.4,0.6C120,18.4,120.3,19,120.3,19.7z"/>
			<path id="Vector_30" class="st1" d="M122.8,26.6v-9.1h2.5v9.1H122.8z"/>
			<path id="Vector_31" class="st1" d="M135.8,26.6h-2.5v-3.7h-2.9v3.7H128v-9.1h2.5v3.3h2.9v-3.3h2.5V26.6z"/>
			<path id="Vector_32" class="st1" d="M142.5,19.4c-0.6,0-1.1,0.2-1.4,0.7s-0.5,1.1-0.5,2c0,1.7,0.7,2.6,2,2.6
				c0.4,0,0.8-0.1,1.2-0.2c0.4-0.1,0.8-0.3,1.1-0.4v2.1c-0.8,0.3-1.6,0.5-2.6,0.5c-1.4,0-2.4-0.4-3.2-1.2c-0.7-0.8-1.1-1.9-1.1-3.4
				c0-1,0.2-1.8,0.5-2.5c0.4-0.7,0.9-1.3,1.5-1.6c0.7-0.4,1.5-0.6,2.4-0.6c1,0,1.9,0.2,2.8,0.6l-0.8,1.9c-0.4-0.1-0.7-0.3-1-0.4
				C143.3,19.5,142.9,19.4,142.5,19.4z"/>
			<path id="Vector_33" class="st1" d="M154,23.6c0,1-0.3,1.7-1,2.2c-0.7,0.5-1.6,0.8-2.8,0.8h-2.7v-9.1h2.5v3.2h0.1
				c1.3,0,2.2,0.2,2.9,0.7C153.6,22,154,22.7,154,23.6z M149.9,24.7h0.1c1,0,1.5-0.3,1.5-1.1c0-0.7-0.5-1-1.5-1h-0.1L149.9,24.7
				L149.9,24.7z"/>
			<path id="Vector_34" class="st1" d="M164.1,26.6h-2.8l-2.7-4.6v4.6h-2.5v-9.1h2.5v4.4l2.6-4.4h2.7l-2.8,4.3L164.1,26.6z"/>
			<path id="Vector_35" class="st1" d="M165.6,17.5h2.2v3.9c0,0.4,0,1.2-0.1,2.5h0.1l3.6-6.4h3.1v9.1h-2.2v-3.8c0-0.6,0-1.4,0.1-2.6
				h-0.1l-3.7,6.4h-3.1L165.6,17.5L165.6,17.5z"/>
			<path id="Vector_36" class="st1" d="M177.1,17.5h2.2v3.9c0,0.4,0,1.2-0.1,2.5h0.1l3.6-6.4h3.1v9.1h-2.2v-3.8c0-0.6,0-1.4,0.1-2.6
				h-0.1l-3.7,6.4h-3.1L177.1,17.5L177.1,17.5z M181.6,16.8c-1,0-1.8-0.2-2.2-0.6c-0.5-0.4-0.8-1-0.8-1.8h2c0,0.4,0.1,0.7,0.3,0.9
				c0.1,0.2,0.4,0.3,0.8,0.3c0.6,0,1-0.4,1-1.2h2.1C184.5,16,183.5,16.8,181.6,16.8z"/>
			<path id="Vector_37" class="st1" d="M193.8,26.7c-0.6,0-1.1-0.1-1.6-0.2v-1.9c0.4,0.1,0.9,0.2,1.5,0.2c0.3,0,0.5-0.1,0.6-0.2
				c0.2-0.1,0.3-0.3,0.4-0.6l-3-6.5h2.7l1.1,2.8c0,0.1,0.1,0.2,0.1,0.4c0.1,0.1,0.1,0.3,0.2,0.5c0.1,0.2,0.1,0.3,0.2,0.5
				c0.1,0.1,0.1,0.3,0.1,0.4h0.1c0.1-0.5,0.4-1.2,0.6-2l0.9-2.5h2.7l-2.8,6.4c-0.4,0.8-0.7,1.4-1,1.8c-0.3,0.4-0.7,0.6-1.2,0.8
				C195,26.6,194.5,26.7,193.8,26.7z"/>
			<path id="Vector_38" class="st1" d="M209.9,26.6h-2.5v-3.7h-2.9v3.7H202v-9.1h2.5v3.3h2.9v-3.3h2.5V26.6z"/>
			<path id="Vector_39" class="st1" d="M212.5,26.6v-9.1h2.5v9.1H212.5z"/>
			<path id="Vector_40" class="st1" d="M217.6,17.5h3.2c1.3,0,2.2,0.2,2.8,0.5c0.6,0.4,0.9,0.9,0.9,1.7c0,0.5-0.1,1-0.4,1.3
				c-0.3,0.3-0.6,0.6-1,0.7v0.1c0.6,0.1,1,0.4,1.2,0.7c0.3,0.3,0.4,0.8,0.4,1.4c0,0.8-0.3,1.5-0.9,1.9c-0.6,0.5-1.5,0.7-2.6,0.7
				h-3.6L217.6,17.5L217.6,17.5z M220.1,21h0.8c0.3,0,0.6-0.1,0.8-0.2c0.2-0.1,0.3-0.3,0.3-0.6c0-0.5-0.4-0.7-1.2-0.7h-0.7V21z
				 M220.1,22.8v1.9h0.9c0.8,0,1.2-0.3,1.2-1c0-0.3-0.1-0.5-0.3-0.7c-0.2-0.2-0.5-0.2-0.9-0.2H220.1z"/>
			<path id="Vector_41" class="st1" d="M232.3,26.6h-5.5v-9.1h5.5v2h-3v1.4h2.7v2h-2.7v1.7h3V26.6z"/>
			<path id="Vector_42" class="st1" d="M241.2,20.4c0,1-0.3,1.8-0.9,2.3c-0.6,0.5-1.5,0.8-2.6,0.8h-0.7v3h-2.5v-9.1h3.2
				c1.2,0,2,0.3,2.6,0.7C240.9,18.8,241.2,19.5,241.2,20.4z M237.1,21.6h0.4c0.4,0,0.7-0.1,0.9-0.3c0.2-0.2,0.3-0.5,0.3-0.9
				c0-0.6-0.4-0.9-1-0.9H237L237.1,21.6L237.1,21.6z"/>
			<path id="Vector_43" class="st1" d="M247.4,19.4c-0.6,0-1.1,0.2-1.4,0.7s-0.5,1.1-0.5,2c0,1.7,0.7,2.6,2,2.6
				c0.4,0,0.8-0.1,1.2-0.2c0.4-0.1,0.8-0.3,1.1-0.4v2.1c-0.8,0.3-1.6,0.5-2.6,0.5c-1.4,0-2.5-0.4-3.2-1.2c-0.7-0.8-1.1-1.9-1.1-3.4
				c0-1,0.2-1.8,0.5-2.5c0.4-0.7,0.9-1.3,1.5-1.6c0.7-0.4,1.5-0.6,2.4-0.6c1,0,1.9,0.2,2.8,0.6l-0.8,1.9c-0.4-0.1-0.7-0.3-1-0.4
				C248.2,19.5,247.8,19.4,247.4,19.4z"/>
			<path id="Vector_44" class="st1" d="M252.3,17.5h2.2v3.9c0,0.4,0,1.2-0.1,2.5h0.1l3.6-6.4h3.1v9.1H259v-3.8c0-0.6,0-1.4,0.1-2.6
				h-0.1l-3.7,6.3h-3.1V17.5z"/>
			<path id="Vector_45" class="st1" d="M267.9,26.6h-2.5v-7.1h-2.2v-2h6.9v2h-2.2L267.9,26.6L267.9,26.6z"/>
			<path id="Vector_46" class="st1" d="M277.5,26.6H272v-9.1h5.5v2h-3v1.4h2.7v2h-2.7v1.7h3V26.6z"/>
			<path id="Vector_47" class="st1" d="M283.8,26.6h-2.5v-7.1H279v-2h7v2h-2.2V26.6z"/>
		</g>
	</g>
</g>
<g id="karazin-symbol">
	<g>
		<path id="Vector_48" class="st1" d="M58.8,0H0v60h58.8V0z"/>
		<path id="Vector_49" class="st1" d="M56.8,2H2V58h54.8V2z"/>
		<path id="Vector_50" class="st0" d="M56.5,2.2v55.6H2.3V2.2H56.5z M57,1.7H1.7v56.6H57V1.7z"/>
		<path id="Vector_51" class="st2" d="M26.9,47c-0.2,0-0.3-0.1-0.5-0.2c0,0,0,0,0-0.1c0,0,0-0.1,0-0.1c0-0.3,0.6-0.7,0.6-0.7
			c0,0,0.1-0.1,0.2-0.2l0,0c0.1-0.1,0.1-0.1,0.2-0.2c0.1-0.1,0.1-0.1,0.2-0.2c0-0.1,0.1-0.2,0.2-0.2c0.1,0,0.1-0.1,0.2-0.2
			c0.1-0.1,0.2-0.2,0.4-0.3c0,0,0,0,0.1,0c0,0-0.1-0.1-0.2-0.1c-0.1,0-0.1,0-0.2,0c0,0-0.1,0-0.1,0c0,0,0,0,0,0c-0.1,0-0.2,0-0.4,0
			c-0.1,0-0.3,0-0.4,0.1c0,0.1-0.1,0.1-0.1,0.2c0,0.1-0.1,0.1-0.1,0.2c-0.1,0.2-0.4,0.3-1,0.4c0,0,0,0-0.1,0c0,0-0.1,0-0.1,0
			c-0.1,0-0.2,0-0.3,0c-0.2,0-0.3,0-0.5,0c-0.1,0-0.1,0-0.2,0c-0.1,0-0.3-0.1-0.4-0.1h0c0,0-0.1,0-0.1,0c0,0-0.1,0-0.1,0h-0.1
			c-0.1,0-0.1-0.1-0.1-0.1c0-0.1,0.1-0.1,0.2-0.1l0.1,0c0,0,0.1-0.1,0.1-0.1c0,0,0.1-0.1,0.1-0.1c0.1-0.1,0.2-0.2,0.3-0.2l0,0
			c0,0,0,0,0.1-0.1c0.1-0.1,0.9-0.5,1.1-0.5c0.1,0,0.1,0,0.2,0h0.1c-0.2-0.1-0.4-0.2-0.5-0.3l-0.2-0.1c-0.1-0.1-0.3-0.2-0.5-0.3h0
			c0,0,0,0-0.1,0c0,0,0,0-0.1,0l0,0c0.1,0.1,0.1,0.2,0.2,0.3c0,0.2-0.1,0.4-0.2,0.6c0,0-0.1,0.1-0.2,0.1c-0.1,0-0.1,0-0.2,0
			c-0.1,0-0.2,0-0.3-0.1c-0.1-0.1-0.2-0.1-0.2-0.2c-0.1-0.1-0.1-0.2-0.1-0.3c0-0.1,0-0.2,0-0.3c0-0.1,0.1-0.2,0.1-0.2
			c0.1-0.1,0.1-0.1,0.2-0.1l0.1,0c0,0,0,0,0,0c0,0,0.1-0.1,0.1-0.1l0,0c-0.2-0.1-0.4-0.2-0.6-0.3c0,0,0,0-0.1,0
			c-0.3,0-0.5,0.3-0.6,0.5c0,0,0,0,0,0c0,0,0,0,0,0c0,0.1,0,0.1,0.1,0.2c0,0.1,0.1,0.1,0.1,0.2c0,0.1,0.1,0.3,0.1,0.4
			c0,0.1,0,0.2-0.1,0.3c0,0.1,0,0.1,0,0.2c0,0.2-0.1,0.3-0.2,0.5c-0.1,0.1-0.1,0.2-0.2,0.2c-0.1,0.1-0.2,0.2-0.3,0.4
			c0,0-0.1,0.1-0.1,0.1c0,0-0.1,0.1-0.1,0.1c-0.2,0.2-0.4,0.4-0.5,0.6c-0.1,0.2-0.3,0.5-0.5,0.5c0,0,0,0-0.1,0s0,0,0,0
			c0,0,0,0,0-0.1c0,0,0,0,0-0.1c0-0.3,0-0.7,0.1-1c0-0.2,0.1-0.3,0.1-0.5c0,0,0.1-0.8,0.2-0.8c0.1-0.1,0.1-0.2,0.2-0.3
			c0,0,0.1-0.1,0.1-0.1l0,0c-0.3,0.1-0.6,0.2-1,0.2c0,0-0.1,0-0.1,0c0,0.2,0.1,0.3,0.1,0.5c0,0.2,0,0.3-0.1,0.3l0,0h-0.1h0l0,0
			c-0.1-0.1-0.2-0.2-0.3-0.3c0-0.1-0.1-0.1-0.2-0.1c-0.1,0-0.3-0.2-0.3-0.3c0-0.1-0.1-0.1-0.2-0.2c0,0-0.1-0.1-0.1-0.1
			c0,0-0.1-0.1-0.1-0.1c0,0.1,0,0.1,0,0.2l0,0.2c0,0.1,0.1,0.3,0.1,0.3v0.1c0,0.2,0,0.3,0,0.4c0,0,0,0.1,0,0.2
			c-0.1,0.9-0.2,1.2-0.4,1.2c-0.2,0-0.2-0.2-0.2-0.3l0-0.1c0-0.1-0.1-0.3-0.1-0.4c-0.1-0.3-0.2-0.5-0.3-0.7c0,0,0-0.1-0.1-0.1l0-0.1
			v0l0-0.1c0,0,0-0.1,0-0.1c-0.2-0.2-0.3-0.5-0.3-0.8c-0.1-0.6,0-1.2,0.1-1.7l0.1-0.2c0.1-0.2,0.1-0.4,0.2-0.6c0,0,0,0,0,0
			c0,0-0.1,0-0.1,0.1c0,0,0,0.1,0,0.1c0,0.1,0,0.2-0.1,0.3c0,0,0,0.1,0,0.1c0,0.1,0,0.1-0.1,0.2c-0.2,0.2-0.3,0.4-0.5,0.5
			c-0.1,0.1-0.2,0.1-0.3,0.2c-0.1,0.1-0.2,0.1-0.3,0.2c-0.1,0-0.1,0.1-0.2,0.1c-0.1,0.1-0.2,0.1-0.4,0.2c-0.1,0-0.2,0.1-0.2,0.1
			c-0.3,0.1-0.5,0.2-0.8,0.3h0h0c0,0,0,0-0.1,0c0,0,0,0,0-0.1c0-0.1,0-0.2,0.5-0.6c0.1-0.1,0.1-0.1,0.1-0.1c0-0.1,0.1-0.2,0.1-0.3
			c0-0.1,0.1-0.1,0.1-0.2c0.1-0.3,0.3-0.6,0.5-0.8c0.2-0.2,0.4-0.4,0.6-0.5l0.1,0c0,0,0.1,0,0.1-0.1c0.1-0.1,0.3-0.1,0.5-0.1
			c0.1,0,0.2,0,0.3,0c0,0,0.1,0,0.1,0c0,0,0,0,0,0.1c0,0,0.2-0.1,0.3-0.1c0.1,0,0.1,0,0.2-0.1c0.1,0,0.1-0.1,0.2-0.1
			c0.2-0.1,0.3-0.2,0.5-0.3c0,0,0.1-0.1,0.2-0.1c-0.2-0.1-0.4-0.2-0.6-0.3c-0.1,0-0.3-0.1-0.4-0.1c0,0-0.1,0-0.1,0c0,0,0,0,0,0
			l-0.1,0c-0.2,0-0.3,0.1-0.5,0.1c0,0.1-0.1,0.2-0.1,0.2c0,0.1-0.1,0.2-0.2,0.2c-0.2-0.1-0.2-0.2-0.2-0.4c-0.2,0.1-0.6,0.2-0.7,0.3
			c-0.1,0-0.3,0.1-0.4,0.1c-0.2,0-0.5,0-0.7-0.1c-0.1,0-0.1-0.1-0.2-0.1c-0.1,0-0.1-0.1-0.2-0.1c0,0-0.2-0.1-0.3-0.2
			c-0.1,0-0.1-0.1-0.2-0.1c-0.1-0.1-0.3-0.2-0.4-0.3c0,0-0.1-0.1-0.1-0.1c-0.2-0.1-0.3-0.1-0.5-0.2c-0.1,0-0.3-0.1-0.4-0.1
			c-0.1,0-0.2-0.1-0.3-0.1c-0.2,0-0.5-0.1-0.6-0.3l-0.2-0.1l0.2,0c0.2,0,0.4-0.1,0.7-0.2c0.5-0.1,1-0.2,1.5-0.3c0.1,0,0.2,0,0.4,0
			c0.4,0,0.7,0.2,0.9,0.4c0.1,0.1,0.2,0.2,0.3,0.3c0.1,0.1,0.1,0.2,0.2,0.2c0.1,0,0.3,0.3,0.4,0.3c0,0,0,0,0,0
			c0.1,0,0.1,0.1,0.2,0.1c0,0,0.1,0,0.1,0.1c0.2-0.1,0.4-0.2,0.5-0.4c-0.1,0-0.1,0-0.2-0.1l-0.1-0.1c-0.2-0.1-0.3-0.2-0.5-0.3
			c-0.1-0.1-0.2-0.1-0.3-0.2c-0.1-0.1-0.2-0.1-0.2-0.2c-0.1-0.1-0.2-0.2-0.3-0.2c-0.6-0.1-0.6-0.4-0.6-0.6c0-0.1,0-0.2,0-0.2
			c0-0.1-0.1-0.1-0.1-0.2C15.3,37.1,15,37,15,37c-0.7-0.1-1.1-0.6-1.5-0.9c-0.1-0.2-0.3-0.3-0.4-0.4c0,0-0.1,0-0.1,0
			c-0.4-0.1-0.5-0.1-0.5-0.2v-0.1l0.1,0c0,0,0.6-0.2,0.7-0.2c0.1,0,0.3,0,0.4,0c0.5,0,1,0.1,1.4,0.2c0.3,0.1,0.6,0.2,0.8,0.4
			c0,0,0,0,0,0c0.1,0,0.2,0,0.3-0.1c-0.1-0.2-0.3-0.3-0.4-0.5l-0.2-0.1c-0.2-0.1-0.3-0.2-0.5-0.2l-0.2,0c-0.2,0-0.4-0.1-0.5-0.1
			c-0.1,0-0.2,0-0.3-0.1c-0.2,0-0.3-0.1-0.5-0.1c-0.1,0-0.2-0.1-0.3-0.1c-0.1,0-0.2,0-0.2-0.1c-0.2-0.1-0.3-0.2-0.4-0.3
			c-0.2-0.1-0.3-0.2-0.4-0.3c-0.1-0.1-0.3-0.3-0.4-0.5c0-0.1-0.1-0.1-0.2-0.2c-0.2-0.2-0.5-0.5-0.3-0.7l0-0.1h0.1
			c0.1,0,0.1,0,0.2,0.1c0.1,0.1,0.2,0.1,0.3,0.1l0.2,0c0.5,0,1.1,0.1,1.6,0.3c0.2,0.1,0.4,0.1,0.5,0.2c0.2,0.1,0.4,0.3,0.5,0.5
			c0,0.1,0.1,0.2,0.1,0.2c0.1,0.1,0.1,0.3,0.2,0.4c0,0.1,0.1,0.1,0.1,0.2c0.1,0.1,0.2,0.2,0.3,0.2l0.1,0c-0.2-0.4-0.5-1.1-0.6-1.2
			c-0.1-0.1-0.1-0.2-0.1-0.3c0-0.1,0-0.1-0.1-0.2c-0.2-0.2-0.6-0.3-0.8-0.3c-0.2-0.1-0.5-0.1-0.7-0.1c-0.2,0-0.3,0-0.4,0
			c-0.4,0-0.8-0.2-1.1-0.3c-0.1,0-0.2-0.1-0.2-0.1c-0.1,0-0.1,0-0.1-0.1c0,0-0.1,0-0.1,0c-0.2,0-0.3-0.1-0.3-0.2l0-0.1l0.1-0.1
			c0.2-0.1,0.5-0.2,0.7-0.2c0.1,0,0.2,0,0.3,0l0.1,0c0.1,0,0.2,0,0.3-0.1c0.2-0.1,0.4-0.2,0.6-0.2c0.4,0,0.9,0.1,1.1,0.3l0.1,0.1
			c0.2,0.1,0.3,0.3,0.4,0.4c0,0.1,0.1,0.1,0.1,0.1c0-0.1,0-0.1,0-0.2c0,0,0-0.1,0-0.1c-0.1-0.2-0.1-0.5-0.1-0.7c0-0.1,0-0.1,0-0.2
			c0,0,0-0.1,0-0.1c-0.1-0.1-0.2-0.2-0.4-0.3L14,30.4c-0.2-0.1-0.4-0.2-0.6-0.2c-0.1,0-0.1,0-0.2,0c-0.2,0-0.4-0.1-0.5-0.1
			c-0.1,0-0.2-0.1-0.3-0.2l-0.1-0.1l0,0c-0.2-0.2-0.2-0.2-0.3-0.2c0,0,0-0.1,0-0.1c0,0,0-0.1,0.1-0.1c0,0,0-0.1,0-0.1
			c-0.1-0.1-0.3-0.3-0.3-0.5l0-0.1c0-0.1-0.1-0.1-0.1-0.2c-0.1-0.1-0.1-0.1-0.2-0.2c-0.1-0.1-0.1-0.1-0.2-0.2
			C11,28,10.8,27.7,11,27.6l0,0H11c0.1,0,0.2,0.1,0.3,0.2c0,0,0.1,0.1,0.1,0.1l0,0c0.1,0.1,0.3,0.1,0.4,0.1c0,0,0.1,0,0.1,0h0.1
			c0,0,0.1,0,0.1,0c0.3,0,0.5,0.1,0.7,0.2c-0.2-0.3-0.4-0.7-0.5-1.1c-0.4-1.4-0.3-1.6-0.3-1.6l0,0l0.1,0c0,0,0.1,0,0.1,0
			c0.1,0,0.1,0.1,0.1,0.2l0,0c0,0,0.1,0.1,0.1,0.1c0,0,0,0.1,0.1,0.1c0.1,0.2,0.3,0.4,0.5,0.5l0.1,0.1c0.1,0.1,0.3,0.3,0.4,0.5l0,0
			c0.1,0.2,0.3,0.4,0.4,0.6c0-0.6,0.1-1.1,0.2-1.6l0.1-0.2c0,0-0.1-0.1-0.1-0.1c0,0-0.1-0.1-0.1-0.1c-0.1-0.1-0.2-0.2-0.3-0.3
			c0.1,0.2,0.1,0.4,0.1,0.6c0,0.1-0.1,0.2-0.2,0.3c-0.1,0.1-0.2,0.1-0.4,0.1c-0.1,0-0.1,0-0.1,0c-0.2,0-0.3-0.2-0.4-0.3
			c-0.1-0.2-0.1-0.3-0.1-0.5c0-0.2,0.1-0.3,0.2-0.4c0.1-0.1,0.2-0.2,0.4-0.3C13.2,25,13,25,12.8,25h-0.2c-0.1,0-0.1,0-0.3,0
			c-0.3,0-0.5-0.1-0.7-0.3c0,0-0.7-0.5-0.6-0.7l0-0.1l0.1,0h0c0.1,0,0.1,0,0.2,0.1c0.1,0,0.2,0.1,0.4,0.1h0.1c0,0,0.1,0,0.1,0h0.1
			c0.1,0,0.2,0,0.3-0.1c0.1-0.1,0.2-0.1,0.3-0.2c0.1-0.1,0.1-0.1,0.2-0.2c0.2-0.1,0.3-0.2,0.5-0.2c0,0,0.1,0,0.1,0
			c0.1,0,0.2,0,0.3-0.1c-0.1-0.1-0.2-0.2-0.2-0.3c-0.1,0-0.1-0.2-0.3-0.6c0-0.1-0.1-0.2-0.1-0.2c-0.1-0.3-0.2-0.7-0.2-1
			c0-0.1,0-0.2,0-0.3c0-0.1,0-0.1,0-0.2c0-0.2-0.1-0.4,0-0.5l0,0l0.1,0c0.1,0,0.3,0.2,0.6,0.7l0,0.1c0,0,0,0.1,0.1,0.1
			c0,0.1,0.1,0.2,0.1,0.2c0.1,0.1,0.2,0.3,0.3,0.4l0,0c0-0.2-0.1-0.3-0.1-0.5c-0.1-0.2-0.1-0.3,0-0.5c0-0.1,0-0.2,0.1-0.3l0-0.1
			c0-0.2,0-0.3,0-0.5c0-0.2,0-0.3,0.1-0.5c0-0.1,0-0.1,0.1-0.2c0,0,0,0,0-0.1c0,0,0-0.1,0-0.2c0.1-0.4,0.2-0.5,0.3-0.5h0.1l0,0.1
			c0,0.2,0.2,0.5,0.3,0.7c0.1,0.2,0.2,0.3,0.2,0.5c0,0.2,0.1,0.3,0.2,0.5c0.1,0.1,0.1,0.3,0.1,0.4c0,0.1,0,0.2,0,0.2
			c0,0,0,0.1,0.1,0.1l0,0.1c0.1,0.3,0.2,0.7,0.1,1c0,0.2-0.1,0.3-0.1,0.5c-0.1,0.2-0.1,0.3-0.1,0.5v0l0,0.1c0,0.1,0,0.3,0.1,0.4
			l0,0.1c0,0,0-0.1,0-0.1c0.1-0.3,0.2-0.6,0.2-0.8c0-0.1,0-0.3,0-0.4c0-0.2,0-0.3,0-0.5c0-0.1,0.1-0.3,0.1-0.4l0-0.1
			c0-0.2,0.1-0.3,0.3-0.4c0.3-0.2,0.8-0.7,0.9-0.9c0,0,0-0.1,0.1-0.1c0,0-0.1,0-0.1,0.1c-0.1,0-0.2,0.1-0.3,0.1
			c-0.1,0-0.3,0-0.4-0.1c-0.1-0.1-0.2-0.1-0.2-0.2c-0.1-0.1-0.1-0.2-0.1-0.3c0-0.4,0.2-0.6,0.5-0.7c0.1,0,0.1-0.1,0.2-0.1
			c0.1,0,0.1,0,0.2,0c0.1,0,0.1,0.1,0.2,0.1c0,0,0.1,0.1,0.1,0.1c0.1,0.1,0.2,0.3,0.2,0.5c0,0.1,0,0.2,0.1,0.3
			c0.1,0,0.2-0.1,0.2-0.3c0-0.1,0.1-0.2,0.1-0.2c0.2-0.2,0.2-0.6,0.1-0.8c-0.1-0.1-0.2-0.1-0.2-0.2c-0.2-0.1-0.3-0.2-0.4-0.3
			c-0.1-0.1-0.1-0.2-0.2-0.3C17.1,17,17,16.9,17,16.8c0-0.1,0-0.1-0.1-0.2c0-0.1-0.1-0.2-0.1-0.3c-0.1-0.2-0.1-0.5-0.1-0.8
			c0-0.1,0-0.2,0-0.2c0-0.1,0-0.2,0-0.2c0-0.2-0.1-0.3-0.1-0.5c0-0.1,0-0.3,0-0.3c0-0.1,0-0.2,0.1-0.2s0.1,0.1,0.1,0.1
			c0,0.1,0.1,0.3,0.2,0.4c0.2,0.3,0.4,0.5,0.7,0.8l0.2,0.2c0.1,0.1,0.1,0.2,0.2,0.3c0,0.1,0.1,0.2,0.2,0.3c0,0.1,0.1,0.1,0.1,0.2
			c0,0,0,0.1,0,0.1c0-0.2,0.1-0.4,0.2-0.6c0.1-0.1,0.1-0.3,0.2-0.4c0.1-0.1,0.1-0.1,0.2-0.2c0.2-0.2,0.4-0.4,0.7-0.6
			c0.2-0.1,0.2-0.2,0.3-0.2h0.1l0,0.1c0,0.1,0,0.2-0.3,0.6c0,0.1-0.1,0.1-0.1,0.1c-0.1,0.2-0.1,0.5-0.1,0.8c0,0.2,0,0.4,0,0.6
			c0-0.1,0.1-0.1,0.1-0.2c0.1-0.1,0.1-0.2,0.2-0.3c-0.2-0.2-0.2-0.5-0.2-0.8c0-0.4,0.6-1.1,0.7-1.2l0.3-0.4c0.3-0.4,0.4-0.5,0.5-0.5
			h0.1l0,0c0,0.1,0,0.1,0,0.3c0,0.2-0.1,0.3-0.1,0.5c0,0.2,0,0.3-0.1,0.5L21.1,15c0,0.1,0,0.2-0.1,0.2c0.1-0.1,0.2-0.2,0.2-0.3
			c0-0.3,0.2-0.7,0.6-0.7c0,0,0.1,0,0.1,0c0,0,0.1,0,0.1-0.1c0.1-0.1,0.3-0.2,0.4-0.3c0.2-0.1,0.3-0.2,0.4-0.4c0,0,0.1-0.1,0.1-0.1
			c0,0,0.1,0,0.1,0h0.1c0,0,0.1,0,0.1,0c0,0,0,0,0.1,0.1c0.1,0.2,0,0.7-0.1,1c0,0,0,0.1-0.1,0.2c0,0.1-0.1,0.2-0.2,0.3
			c-0.1,0.1-0.2,0.2-0.3,0.2c-0.1,0-0.2,0-0.3,0c-0.1,0-0.1,0-0.2,0l-0.1,0c-0.4,0.1-0.7,0.1-1,0.4c0.1,0,0.1-0.1,0.2-0.1
			c0.1,0,0.3-0.1,0.4-0.1c0.1,0,0.2,0,0.4,0.1c0,0,0.1,0,0.1,0l0.1,0c0.2,0,0.3,0.1,0.5,0.1c0,0,0.1,0,0.1,0c0,0,0,0,0.1,0
			c0,0,0.1,0,0.1,0c0,0,0.2,0,0.2,0.2c0,0,0,0.1,0,0.1c0,0,0,0-0.1,0.1c0,0-0.1,0.1-0.1,0.1c-0.6,0.5-0.8,0.5-1.5,0.7
			c-0.2,0-0.3,0.1-0.5,0.1c-0.1,0-0.3,0-0.4-0.1c-0.2,0-0.3-0.1-0.4-0.2c0,0,0,0-0.1,0c-0.1,0.1-0.1,0.1-0.2,0.2l-0.1,0.1l0,0.1
			C19.9,17,19.9,17,19.9,17c0,0-0.1,0.1-0.1,0.1h0c0.2-0.1,0.4-0.1,0.6-0.1c0.1,0,0.1,0,0.2,0c0.1,0,0.2,0.1,0.3,0.3
			c0.1,0.1,0.1,0.3,0.1,0.4c0,0.3-0.1,0.4-0.3,0.6c-0.1,0-0.2,0.1-0.3,0.1c0,0-0.1,0-0.1,0c-0.4-0.1-0.4-0.2-0.4-0.5v-0.1
			c0-0.1,0-0.1,0.1-0.2c-0.2,0.1-0.4,0.1-0.6,0.3c0,0-0.1,0.1-0.1,0.1c0,0-0.1,0.1-0.1,0.1c-0.1,0.1-0.2,0.2-0.3,0.3l-0.1,0.1
			c0,0.1-0.1,0.2-0.2,0.2c0,0.1-0.1,0.1-0.1,0.1l-0.1,0.1c-0.1,0.1-0.2,0.2-0.2,0.3c0,0,0,0.1-0.1,0.1c0.1,0,0.1-0.1,0.2-0.1
			c0-0.1,0.1-0.1,0.2-0.2c0.1-0.1,0.2-0.1,0.3-0.2c0.1-0.1,0.3-0.2,0.4-0.2c0.3-0.1,0.6-0.2,1-0.2h0.1c0.1,0,0.2,0,0.4,0.1
			c0.2,0,0.3,0.1,0.5,0.1c0.1,0,0.3,0,0.4-0.1h0.1l0,0.1c0,0.1-0.7,0.8-1.6,0.9c0.4,0.2,0.7,0.5,0.9,0.8l0.1,0.2l-0.2,0
			c-0.4,0-0.7,0.1-0.9,0.1c-0.3,0-0.6-0.1-0.8-0.2c-0.1-0.1-0.3-0.1-0.4-0.2c-0.1-0.1-0.2-0.1-0.3-0.2c-0.1,0-0.1,0-0.2,0
			c-0.1,0-0.1,0-0.2,0c0,0-0.1,0-0.1,0h-0.1c-0.1,0-0.1,0-0.2,0.1c-0.1,0-0.2,0.1-0.2,0.1c0,0-0.1,0.1-0.1,0.1l-0.1,0h0
			c0.1,0,0.1,0,0.2,0c0.1,0,0.2,0,0.2,0c0.3,0,0.5,0.2,0.6,0.5c0,0.1,0.1,0.2,0.1,0.2c0,0.1,0,0.3,0,0.4c-0.1,0.1-0.1,0.2-0.3,0.3
			c-0.1,0.1-0.2,0.1-0.3,0.1c0,0-0.1,0-0.1,0c0,0-0.1,0-0.1,0c-0.1,0-0.2,0-0.2-0.1c-0.1,0-0.1-0.1-0.2-0.2C17,21.5,17,21.3,17,21.2
			c0-0.2,0.1-0.3,0.2-0.4c-0.1,0-0.1,0-0.2,0c-0.1,0-0.1,0-0.2,0c-0.4,0.1-0.5,0.6-0.5,1c0,0.5-0.1,1-0.2,1.5c0,0.2-0.1,0.4-0.2,0.6
			l0,0.1c-0.1,0.1-0.1,0.2-0.1,0.2c0.1,0,0.2-0.2,0.2-0.3l0-0.1c0.1-0.2,0.3-0.4,0.5-0.6c0,0,0.1,0,0.1-0.1c0,0,0.1-0.1,0.1-0.1
			l0.1,0c0.2-0.1,0.3-0.2,0.5-0.4c0.1,0,0.1,0,0.2,0c0,0,0.1,0,0.1,0c0.2-0.1,0.5-0.2,0.7-0.2c0,0,0.1,0,0.1,0c0,0,0.1,0,0.1,0.1
			c0,0,0,0.1,0,0.1s0,0.1,0,0.1c0,0.1-0.1,0.2-0.1,0.2c-0.1,0.1-0.1,0.2-0.2,0.2c0,0-0.2,0.6-0.3,0.6c-0.1,0.1-0.1,0.1-0.2,0.2
			l0,0.1c-0.1,0.2-0.3,0.3-0.4,0.4c-0.1,0-0.2,0.1-0.2,0.2c-0.1,0.1-0.3,0.2-0.4,0.2c-0.3,0-0.6,0.1-0.9,0.1c-0.1,0-0.2,0.3-0.3,0.4
			c0,0.1-0.1,0.1-0.1,0.2l-0.1,0.1c0,0-0.1,0.1-0.1,0.1c0,0,0,0,0,0.1l0,0.1c0,0.1,0.1,0.2,0.1,0.3c0.1-0.1,0.2-0.3,0.2-0.4
			c0.1-0.1,0.1-0.2,0.2-0.2c0.1-0.1,0.3-0.2,0.5-0.2c0.1,0,0.3,0.1,0.4,0.3c0.1,0.1,0.1,0.2,0.2,0.3c0,0.1,0,0.2,0,0.4
			c0,0.1,0,0.1-0.1,0.2c0,0.1-0.1,0.1-0.1,0.1c-0.1,0.1-0.3,0.1-0.5,0.1c-0.1,0-0.1,0-0.1,0c-0.1-0.1-0.3-0.2-0.3-0.3
			c0,0,0-0.1,0-0.1c-0.1,0.2-0.1,0.4-0.1,0.5c0.1,0.7,0.1,1.5,0.1,2.2c-0.1,0.2-0.1,0.4-0.3,0.6c-0.1,0.1-0.1,0.2-0.2,0.3
			C15,30,15,30.1,15,30.2c0,0,0,0.1,0,0.1l0,0.2c0,0.1,0,0.1,0,0.2c0,0.2,0.1,0.3,0.1,0.5c0-0.1,0-0.1,0.1-0.2c0-0.1,0-0.1,0.1-0.2
			c0-0.1,0.1-0.2,0.1-0.4c0-0.2,0.1-0.3,0.2-0.5c0-0.1,0.1-0.1,0.1-0.2c0.1-0.1,0.3-0.2,0.4-0.3c0.2-0.1,0.4-0.1,0.6-0.2l0.3-0.1
			c0.3-0.2,0.6-0.3,1-0.4h0.1l0.1,0.1c0,0.1,0,0.1-0.4,0.8c-0.1,0.1-0.1,0.2-0.1,0.2c0,0,0,0.1,0,0.1c0,0.1,0,0.1,0,0.2l0,0.1
			c-0.1,0.2-0.2,0.4-0.4,0.6c-0.1,0.1-0.2,0.2-0.2,0.2c0,0,0,0.1-0.1,0.1c0,0-0.1,0-0.1,0.1c0,0-0.1,0-0.1,0.1
			c-0.2,0.1-0.5,0.2-0.7,0.2l-0.1,0c-0.2,0.1-0.4,0.2-0.6,0.3c0,0,0,0,0,0.1c0,0,0,0.1,0,0.1c0,0.1,0,0.2,0.1,0.3c0,0.2,0,0.3,0,0.5
			c0,0.3,0,0.6,0.1,0.9c0-0.4,0-0.7,0.1-1.1c0-0.1,0.1-0.2,0.2-0.3c0.1-0.2,0.2-0.2,0.2-0.3c0,0,0.1-0.1,0.1-0.1
			c0.2-0.3,0.5-0.5,0.8-0.7c0,0,0.1-0.1,0.1-0.1c0.1-0.1,0.2-0.2,0.4-0.2h0h0.1l0,0.1c0,0.1,0,0.1-0.2,0.4l0,0.1
			c-0.1,0.1-0.1,0.2-0.1,0.4c0,0.2-0.1,0.4-0.1,0.6c0,0.2-0.1,0.5-0.1,0.7c0,0,0-0.1,0.1-0.1c0,0,0-0.1,0.1-0.1
			c0.1-0.3,0.2-0.5,0.4-0.7c0,0,0,0,0.1,0c0,0,0,0,0.1,0h0.1l0,0.1v0.1c0,0.1,0,0.2,0,0.3c-0.1,0.4,0,1.1,0.1,1.6
			c0,0.1,0,0.3,0.1,0.4c0,0.2,0,0.4,0,0.6h0.1c0.1,0,0.2,0.1,0.3,0.2c0,0,0.1,0.1,0.1,0.1c0.1,0,0.2,0.1,0.2,0.1
			c0.1,0.1,0.2,0.1,0.4,0.2l0.3,0.2c0.1,0,0.1,0.1,0.1,0.1l0,0c-0.1-0.2-0.2-0.4-0.2-0.7c0-0.1,0-0.3,0-0.4c0-0.1,0-0.2,0-0.3
			c0-0.2,0-0.5,0-0.7c0,0,0-0.1,0.1-0.1c0,0,0.1,0,0.1,0h0l0.1,0c0.1,0.1,0.2,0.2,0.2,0.4c0,0.1,0.1,0.2,0.1,0.2
			c0.1,0.1,0.1,0.2,0.2,0.4l0.1,0.1c0.1,0.2,0.2,0.3,0.4,0.4c0,0,0.1,0,0.1,0.2l0.1,0.1c0,0.1,0.1,0.1,0.1,0.2c0,0,0,0.1,0.1,0.1
			c0.1,0.2,0.1,0.4,0.1,0.6c0,0.1,0,0.1,0,0.2c0,0.3-0.1,0.6-0.2,0.9c-0.1,0.1,0,0.9,0.1,1l0.1,0c0.1,0.1,0.3,0.2,0.4,0.4
			c-0.1-0.2-0.2-0.5-0.2-0.7l-0.1-0.3C21,38,21,37.8,21,37.6c0-0.2,0.1-0.3,0.1-0.5c0-0.1,0-0.1,0.1-0.1c0,0,0,0,0-0.1
			c0.1-0.4,0.3-0.7,0.5-0.9c0,0,0.1,0,0.1,0H22l0.1,0.1c0,0,0,0.1,0,0.1c0,0,0,0.1,0,0.1c0,0,0,0,0,0.1c-0.1,0.2,0,0.6,0.1,0.8
			c0.1,0.2,0.1,0.3,0.2,0.5c0.2,0.4,0.4,0.7,0.3,1.1c-0.1,0.3-0.2,0.6-0.4,0.9v0l0,0.1l-0.1,0c0.1,0.1,0.2,0.3,0.3,0.4
			c0,0,0.1,0.1,0.1,0.2c0,0.1,0.1,0.3,0.2,0.3c0,0,0-0.1,0-0.2c0-0.1,0-0.2,0-0.2c0.1-0.3,0.2-0.6,0.6-0.6c0.1,0,0.2,0,0.4,0.1
			c0.1,0,0.2,0.1,0.2,0.2c0.1,0.1,0.1,0.2,0.2,0.2c0,0.1,0,0.2,0,0.2s0,0.2-0.1,0.2c0,0.1-0.1,0.1-0.2,0.2c0.2,0,0.3,0,0.5,0
			c0.1,0,0.3,0,0.4,0.1c0.1,0,0.2,0,0.3,0.1l0.1,0l0,0c0.1,0,0.2,0.1,0.2,0.1c-0.1-0.1-0.1-0.2-0.1-0.4c0-0.1-0.1-0.2-0.2-0.3l0-0.1
			c-0.1-0.1-0.1-0.3-0.2-0.5c0-0.1,0-0.1,0-0.2c0-0.1,0-0.1,0-0.2c0-0.1,0-0.1,0-0.2c0,0,0-0.1,0.1-0.1l0-0.1h0
			c0-0.1,0.1-0.2,0.2-0.3c0.1-0.1,0.1-0.2,0.1-0.3c0-0.1,0-0.1,0-0.2c0-0.1,0-0.2,0-0.2c0-0.2,0.1-0.3,0.2-0.5l0-0.1l0.1,0
			c0,0,0.1,0,0.1,0c0,0,0,0.1,0,0.1c0,0.1,0,0.3,0,0.4c0,0.3,0.1,0.6,0.2,0.9h0l0,0.1c0,0.1,0.1,0.2,0.2,0.3c0,0.1,0.1,0.1,0.1,0.2
			l0,0v0c0.1,0.2,0.2,0.4,0.2,0.6c0,0.2,0,0.4,0,0.5c0.1-0.1,0.3-0.2,0.5-0.2c0.1,0,0.3,0,0.4,0.1c0.1,0.1,0.2,0.2,0.2,0.3
			c0,0.1,0,0.2,0,0.3c0,0.2-0.1,0.4-0.2,0.6c0,0.1-0.1,0.1-0.2,0.1s-0.1,0.1-0.2,0.1c-0.1,0-0.1,0-0.2,0l0.1,0
			c0.1,0.1,0.2,0.2,0.2,0.3c0.1,0.1,0.1,0.1,0.2,0.2c0,0,0,0,0.1,0.1c0.1,0.1,0.2,0.2,0.3,0.3c0.1,0.1,0.3,0.2,0.4,0.4
			c0.1,0.1,0.2,0.2,0.3,0.3c0,0,0.1,0.1,0.1,0.1c0.1,0.1,0.1,0.1,0.2,0.2c0.1,0.1,0.2,0.1,0.4,0.1c0,0,0.1,0,0.1,0
			c0.2,0,0.3-0.1,0.4-0.3c0.1-0.1,0.2-0.2,0.3-0.3l0.2-0.1c0.1-0.1,0.3-0.2,0.5-0.2c0.2-0.1,0.4-0.2,0.6-0.2l0.4-0.2
			c0.1,0,0.1-0.1,0.2-0.1c0,0,0.1-0.1,0.1-0.1l0,0H32H32c0.1,0,0.2-0.1,0.2-0.1c0,0,0.1-0.1,0.2-0.1c0.1,0,0.1-0.1,0.2-0.1
			c0.1-0.1,0.1-0.1,0.2-0.1l0.1,0c0.1-0.1,0.2-0.1,0.3-0.1c0,0,0,0,0,0H33c-0.1,0-0.1,0-0.2,0c-0.1,0-0.1-0.1-0.2-0.1
			c0-0.1,0-0.1,0-0.2c0-0.1,0-0.1,0-0.1l0,0c-0.4-0.3-0.5-0.3-0.5-0.8c0,0,0-0.1,0.1-0.1c-0.1-0.1-0.1-0.1-0.1-0.2
			c0-0.1,0-0.2,0-0.2c0-0.1,0-0.1,0-0.2c0,0,0-0.1,0-0.1c0,0,0-0.1,0-0.1c0,0,0.1-0.1,0.1-0.1c0,0,0.1,0,0.1,0c0.1,0,0.1,0,0.2,0
			c0.1,0,0.2,0,0.3,0.1c0.1,0.1,0.2,0.1,0.2,0.2c0,0,0.1-0.1,0.2-0.1c-0.2-0.1-0.3-0.2-0.3-0.2c0-0.1-0.1-0.1,0-0.2
			c0-0.1,0-0.2,0.1-0.3S32.9,39,33,39c-0.2-0.2,0-0.6,0-0.7c0-0.1,0.1-0.1,0.1-0.2c0.1,0,0.1-0.1,0.2-0.1c0,0,0.1,0,0.1,0
			c0.1,0,0.2,0.1,0.3,0.2c0,0,0,0,0,0.1c0-0.1,0.1-0.1,0.2-0.1c0.1,0,0.1-0.1,0.2-0.1c0.1,0,0.1,0,0.2,0c0.4,0.2,0.3,0.5,0.2,0.8
			l0,0.1c0,0,0,0.1,0,0.1l0,0.1c0,0,0.1,0,0.1,0.1c0,0,0.1,0.1,0.1,0.1c0,0,0,0.1,0.1,0.1s0,0.1,0,0.1c0,0.1,0,0.2-0.1,0.2
			c0.1,0,0.1,0,0.2,0h0.1l0,0c0,0,0,0,0-0.1c0.1-0.1,0.1-0.1,0.2-0.2c0.1,0,0.2-0.1,0.3-0.1c0.1,0,0.2,0,0.2,0.1
			c0.1,0.1,0.1,0.1,0.2,0.2c0,0,0,0.1,0,0.1c0,0,0,0.1,0,0.1c0,0.1-0.1,0.1-0.1,0.2c0,0-0.1,0.1-0.1,0.1c0,0,0,0,0,0
			c0.1,0,0.1,0.1,0.1,0.1c0,0.1,0,0.1,0,0.2c0,0.1-0.1,0.3-0.2,0.4c0,0,0,0,0,0.1c0.1,0,0.2-0.1,0.3-0.1c0.2-0.1,0.3-0.2,0.5-0.3
			c0.1-0.1,0.1-0.1,0.2-0.2c0.1-0.1,0.3-0.2,0.3-0.4c0-0.1,0-0.3-0.1-0.4c0-0.1,0-0.1-0.1-0.2c0-0.1,0-0.1-0.1-0.2
			c-0.1,0-0.2,0-0.3-0.1c0,0-0.1,0-0.1-0.1c0,0,0-0.1,0-0.1c0-0.1,0-0.1,0-0.2c0,0,0-0.1,0-0.1c0,0-0.1,0-0.1,0c0,0-0.1,0-0.1,0
			c-0.3,0-0.3-0.3-0.3-0.4c0-0.1,0-0.2,0.1-0.3h0c-0.1,0-0.1,0-0.2,0c-0.1,0-0.1-0.1-0.2-0.1c0-0.1-0.1-0.1-0.1-0.2s0-0.1,0-0.2
			c0-0.1,0.1-0.2,0.1-0.3c0-0.1,0.1-0.1,0.1-0.2c0,0,0,0,0-0.1c0,0-0.1-0.1-0.1-0.1c0-0.3,0-0.6,0.4-0.8h0c0.1,0,0.2,0,0.2,0.1
			c0,0,0.1,0,0.1,0.1c0.1,0,0.1,0,0.2,0c0.1,0,0.2,0,0.3,0.1c0.1,0,0.2,0.1,0.2,0.2c0,0.1,0,0.1,0,0.2c0,0.2,0,0.3-0.1,0.5h0
			c0.1,0,0.1,0.1,0.1,0.1c0,0,0.1,0.1,0.1,0.1c0,0.1,0,0.1,0,0.2c0-0.1,0.1-0.2,0.2-0.3c0.1-0.1,0.1-0.1,0.2-0.2l0-0.1
			c0-0.1,0.1-0.1,0.1-0.2c0-0.1,0.1-0.2,0.2-0.3c0,0-0.1-0.1-0.1-0.1c0,0,0-0.1,0-0.1h0c-0.1,0-0.1,0-0.2,0c-0.1,0-0.1,0-0.2,0
			c0,0-0.1,0-0.1,0l0,0c-0.1,0-0.1-0.1-0.1-0.2c0-0.1,0-0.2,0-0.2c0,0,0-0.1,0-0.1h0c0,0-0.1,0-0.1,0c-0.1,0-0.2,0-0.3-0.1
			c-0.1-0.1-0.1-0.2-0.1-0.3c0-0.1,0-0.2,0.1-0.3c0,0,0.1-0.1,0.2-0.1l0,0l0.1,0h0.1c0,0,0.1,0,0.1,0c0.1,0,0.1,0,0.2,0l0,0
			c0,0,0.1-0.1,0.1-0.1s0.1-0.1,0.1-0.1c0.1,0,0.2,0,0.2,0c0.2,0,0.2,0.1,0.4,0.3l0.1,0.1c0,0,0,0,0.1,0c0.1,0,0.1,0,0.2,0h0.1
			c-0.3-0.1-0.2-0.4-0.2-0.5c0,0,0,0,0-0.1c0,0-0.1-0.1-0.1-0.1c0-0.1-0.1-0.1-0.1-0.2c0-0.1,0-0.2,0.1-0.3c0-0.1,0.1-0.2,0.2-0.3
			c0,0,0.1,0,0.1-0.1c0,0,0.1,0,0.1,0l0-0.1c0-0.2,0-0.4,0.3-0.5c0,0,0.1,0,0.1,0c0.1,0,0.1,0,0.2,0.1c0.1,0,0.1,0.1,0.1,0.2l0,0v0
			c0,0,0.1,0,0.1,0c0,0,0.1,0,0.1,0h0.1c0.1,0,0.1,0,0.2,0.1v0c0-0.1,0.1-0.1,0.2-0.1c0.1,0,0.1-0.1,0.2,0c0,0,0,0,0,0
			c0,0,0-0.1,0.1-0.1c0.1-0.1,0.1-0.3,0.3-0.3h0.1c0.1,0,0.1,0,0.2,0.1c0,0,0.1,0.1,0.1,0.1c0.1,0.1,0.1,0.2,0.1,0.4h0
			c0.1,0,0.2,0,0.2,0.1c0,0,0.1,0.1,0.1,0.1c0,0,0,0.1,0,0.1c0,0,0,0,0,0c0,0,0,0,0-0.1c0-0.1,0.1-0.1,0.1-0.1c0.1,0,0.1,0,0.2,0.1
			c0-0.1,0-0.1,0-0.2h0l-0.1-0.1c0,0,0-0.1,0-0.1c0,0,0-0.1,0-0.1h0c0,0,0,0,0,0c0,0,0,0,0,0c-0.1-0.1-0.1-0.3-0.1-0.4c0,0,0,0,0,0
			h-0.1c-0.4,0-0.4-0.3-0.4-0.5c0,0,0,0,0-0.1h0c-0.1,0-0.1,0-0.2,0c-0.1,0-0.2-0.1-0.3-0.2c0-0.1-0.1-0.1-0.1-0.2
			c0-0.1,0-0.1,0-0.2v-0.1c0-0.1,0-0.1,0-0.2c0-0.1,0.1-0.2,0.2-0.2l0.1-0.1c-0.1-0.1-0.1-0.3-0.1-0.4l0-0.1c0-0.2,0.1-0.4,0.3-0.4
			c0,0,0.1,0,0.1,0c0,0,0,0,0.1,0c-0.1-0.2-0.1-0.4,0-0.6c0-0.1,0.1-0.2,0.2-0.2c0.1-0.1,0.2-0.1,0.3-0.1h0h0c0-0.1,0.1-0.1,0.1-0.2
			c0,0,0,0,0-0.1v0l0,0c0.1-0.1,0.2-0.2,0.3-0.2c0.1,0,0.2,0,0.2,0h0.1c0.1,0,0.1,0,0.2,0l0.1,0v0.1c0,0,0.1,0.1,0.1,0.1
			c0,0,0,0.1,0,0.1c0,0.1,0,0.1,0.1,0.2c0,0,0,0,0.1,0c0,0,0.1,0,0.1,0c0,0,0-0.1,0-0.1c0,0,0,0,0-0.1l0-0.1l0.3-0.1l0,0.1l0,0
			c0.1,0,0.2,0.1,0.3,0.2c0-0.1,0-0.2,0-0.3c0-0.1,0-0.2,0-0.3c0-0.2,0-0.4,0-0.6c0-0.2,0-0.4,0-0.6c0,0.1-0.1,0.2-0.1,0.3
			c0,0-0.1,0.1-0.1,0.1c0,0-0.1,0-0.1,0c-0.1,0-0.1,0-0.1,0c0,0,0,0.1-0.1,0.1c0,0-0.1,0-0.1,0.1c-0.1,0.1-0.1,0.1-0.2,0.2
			c-0.1,0-0.2,0.1-0.3,0.1l-0.2,0c0,0-0.1,0-0.1,0c0,0-0.1,0-0.1,0h-0.1l-0.1-0.1c0,0,0-0.1,0-0.1c0,0,0-0.1,0.1-0.1
			c-0.1-0.1-0.1-0.3,0-0.4c0-0.1,0.1-0.3,0.2-0.3l0.1-0.1c0,0,0,0,0,0c0,0,0-0.1,0-0.1c0,0,0-0.1,0.1-0.1l0.1-0.1
			c0.1-0.1,0.3-0.2,0.5-0.2c0.1,0,0.2,0,0.3,0l0.1,0c0,0,0.1,0,0.1,0c0,0,0.1,0,0.1,0c-0.1,0-0.2-0.1-0.2-0.1c0,0-0.1,0-0.1,0
			c0,0-0.1,0-0.1-0.1h0c-0.1,0-0.2,0-0.3,0c0,0-0.1,0-0.1,0c0,0-0.1,0-0.1-0.1c0,0,0-0.1,0-0.1c0,0-0.1,0-0.1,0h-0.1c0,0,0,0-0.1,0
			c-0.1,0-0.1,0-0.1-0.1c0,0-0.1-0.1-0.1-0.1l0,0c0,0,0,0-0.1,0c0,0-0.1,0-0.2,0c-0.1,0-0.1,0-0.2-0.1c-0.1,0-0.1-0.1-0.1-0.1
			c-0.1-0.1-0.2-0.3-0.2-0.5c0,0,0-0.1,0-0.1c0,0-0.1-0.1-0.1-0.1c-0.2-0.3-0.2-0.4,0-0.7c0-0.1,0.1-0.1,0.2-0.2
			c0.1,0,0.1-0.1,0.2-0.1c0-0.1,0-0.1-0.1-0.1c-0.1,0-0.2-0.1-0.2-0.1l-0.1-0.1c-0.3-0.2-0.3-0.2-0.3-0.6c0-0.1,0-0.1,0-0.2
			c0,0,0-0.1,0-0.1c-0.1-0.2-0.2-0.4-0.1-0.5c0.1-0.1,0.1-0.2,0.3-0.2l-0.1-0.1c-0.1,0-0.1,0-0.2-0.1c0,0,0,0,0,0.1
			c0,0.1-0.1,0.1-0.1,0.1c-0.1,0-0.1,0.1-0.2,0.1c-0.1,0-0.2,0-0.3,0c0,0-0.1,0-0.1,0c0,0-0.1,0-0.1,0c0,0-0.1,0-0.1-0.1
			c-0.1-0.1-0.1-0.2-0.1-0.3c0,0,0-0.1,0-0.1c0,0-0.1,0-0.1,0c-0.1,0-0.2,0-0.2-0.1c-0.1-0.1-0.2-0.1-0.2-0.2c0-0.1-0.1-0.2,0-0.3
			c0-0.1,0-0.1,0-0.2s0.1-0.1,0.1-0.1c0,0,0.1-0.1,0.1-0.1c0.1,0,0.1,0,0.2,0h0.1c0,0,0.1,0,0.1,0c0,0,0.1-0.1,0.1-0.1l0,0l0,0v0
			l0,0c0,0-0.1,0-0.1-0.1c-0.1,0-0.1-0.1-0.2-0.1l0,0c-0.1,0-0.1,0.1-0.2,0.1c-0.1,0-0.2,0-0.2,0c-0.1,0-0.2,0-0.3-0.1
			c-0.1,0-0.2-0.1-0.2-0.2c0,0-0.1-0.1-0.1-0.1c0,0,0,0-0.1-0.1c0-0.1-0.1-0.1-0.1-0.2c0-0.1,0-0.2,0-0.2l0-0.1
			c-0.2-0.2-0.4-0.4-0.2-0.6c0.1-0.2,0.3-0.2,0.5-0.3c0.1,0,0.1,0,0.2,0h0c0-0.1,0.1-0.1,0.2-0.1c0.1,0,0.1-0.1,0.2-0.1
			c0.2,0,0.4,0.2,0.5,0.4h0c0.1,0,0.1-0.1,0.2-0.1h0h0c0,0,0.1,0,0.1,0.1c0.1,0.1,0.2,0.2,0.2,0.4c0,0,0,0,0,0.1c0,0,0,0,0,0
			c0,0,0.1,0,0.1,0c0.2,0,0.3,0.2,0.4,0.3l0,0.1c0,0,0.1,0.1,0.1,0.1C41,20,41,20,41.1,20c0,0-0.1-0.1-0.1-0.1c0,0-0.1-0.1-0.1-0.1
			c0,0-0.1-0.1-0.2-0.1l-0.2-0.2c-0.1-0.2-0.3-0.3-0.5-0.5C40,19,40,18.9,39.9,18.8c0,0-0.1-0.1-0.1-0.2l-0.1-0.1c0,0,0,0-0.1,0
			c0,0-0.1,0-0.1,0c-0.1,0-0.2,0-0.3,0.1c0,0-0.1,0-0.1,0c-0.1,0-0.2,0-0.2-0.1c0,0-0.1-0.1-0.1-0.1c-0.1,0.1-0.3,0.2-0.4,0.3h-0.1
			l0-0.1c-0.1,0-0.2-0.1-0.2-0.2c0,0-0.1-0.1-0.1-0.1c0,0-0.1,0.1-0.1,0.1c0,0,0,0-0.1,0.1c-0.1,0-0.1,0-0.2,0c-0.1,0-0.1,0-0.2,0
			c-0.2-0.1-0.3-0.2-0.4-0.3c-0.1-0.1-0.1-0.2-0.1-0.2c0,0,0-0.1,0-0.1c0,0-0.1,0-0.1-0.1c0,0-0.1,0-0.1-0.1l-0.1,0c0,0,0,0-0.1-0.1
			c0-0.1,0-0.1,0-0.2c0-0.1,0-0.1,0-0.2c0,0,0.1-0.1,0.1-0.1c0,0,0.1-0.1,0.1-0.1h0h0c0,0,0,0,0.1,0c0,0,0-0.1,0-0.1
			c0.1-0.2,0.2-0.3,0.4-0.4c0.1,0,0.2,0,0.3,0.1c0.1,0,0.2,0.1,0.2,0.2c0,0,0,0,0,0.1l0.1,0.1l0,0l0,0C37.9,17,38,17,38.1,17
			c0.1,0,0.2,0.1,0.3,0.1c0,0.1,0.1,0.1,0.1,0.2c0,0.1,0.1,0.2,0.1,0.2c0.2,0,0.4,0.1,0.5,0.2c-0.1-0.1-0.2-0.3-0.3-0.4l-0.1,0
			l0-0.1l-0.1-0.1c-0.1-0.1-0.1-0.1-0.2-0.1c0,0-0.1-0.1-0.1-0.1c-0.3-0.2-0.6-0.4-0.9-0.4h0c0,0-0.1,0-0.1,0c0,0-0.1,0-0.1,0.1
			l0,0.1l0,0h0c0,0,0,0,0,0c0,0.1-0.1,0.1-0.2,0.1c-0.1,0-0.1,0-0.2,0h-0.1c-0.1,0-0.1,0-0.2-0.1c-0.1,0-0.1-0.1-0.2-0.1l0,0
			c-0.1,0-0.1,0.1-0.2,0.1c-0.1,0-0.2,0-0.2,0c-0.1,0-0.1,0-0.2,0c-0.1,0-0.2-0.1-0.2-0.1c-0.1-0.1-0.1-0.1-0.1-0.2
			c0-0.1,0-0.1-0.1-0.2c0-0.1-0.1-0.1-0.1-0.1h-0.1h0l0,0c-0.1,0-0.1-0.1-0.2-0.2l0-0.1v0l0,0c0,0,0-0.1,0-0.1s0-0.1,0-0.1
			c0-0.1,0.1-0.1,0.2-0.2c0.1,0,0.1-0.1,0.2-0.1h0h0c0-0.1,0-0.2,0.1-0.2c0,0-0.1,0-0.1,0c-0.1,0-0.1,0-0.2-0.1
			c-0.1-0.1-0.1-0.2-0.1-0.3v0c0,0-0.1,0.1-0.1,0.1c-0.1,0-0.1,0-0.2,0c-0.1,0-0.1,0-0.2,0c-0.1,0-0.1-0.1-0.2-0.1
			c-0.1-0.1-0.1-0.3-0.2-0.5c0-0.1,0-0.1,0-0.2c0,0,0-0.1-0.1-0.1l-0.1,0h-0.1l0-0.1c0,0,0-0.1-0.1-0.1c-0.1-0.1-0.1-0.2-0.1-0.3
			c0-0.1,0.1-0.2,0.2-0.2c0.1-0.1,0.2-0.1,0.3-0.1c0.1,0,0.2,0,0.2,0l0.2,0c0,0,0.1-0.1,0.1-0.1c0,0,0.1-0.1,0.1-0.1
			c0.1,0,0.1,0,0.2,0c0.1,0,0.2,0,0.3,0.1c0.1,0,0.1,0.1,0.2,0.2c0,0.1,0,0.1,0,0.2v0c0,0,0.1,0,0.1-0.1c0.2,0,0.3,0.1,0.3,0.3
			c0,0.1,0,0.1,0.1,0.2c0,0,0.1,0,0.1-0.1h0l0,0c0,0,0,0,0.1,0c0-0.1,0.1-0.1,0.1-0.2c0,0,0.1-0.1,0.1-0.1c0-0.1,0-0.2,0-0.2
			c0-0.2,0.1-0.3,0.3-0.3c0.1,0,0.2,0,0.2,0c0.1,0,0.1,0,0.1,0c0,0,0.1,0.1,0.1,0.1c0,0,0,0,0,0c0,0,0,0.1,0.1,0.1c0,0,0,0,0,0h0
			h0.2c0.1,0,0.2,0,0.2,0.1c0.1,0,0.1,0.1,0.1,0.2c0,0.1,0,0.2-0.1,0.3c0,0.1-0.1,0.2,0,0.2c0,0,0.1,0,0.1,0c0.1,0,0.1,0,0.1,0.1
			s0.1,0.1,0.1,0.1c0,0.1,0,0.1,0,0.2c0,0,0,0,0,0.1c0.2,0.2,0.1,0.4,0.1,0.6l0,0.1c0,0.1,0,0.2,0,0.4c0,0,0,0.1,0,0.1
			c0,0.1,0,0.1,0.1,0.2c0.1,0.1,0.2,0.2,0.2,0.2h0l0,0l0.1,0.1c0-0.1,0-0.3,0.1-0.4c0,0,0,0,0,0c0,0-0.1,0-0.1-0.1
			c-0.1-0.1-0.2-0.3-0.3-0.5c0-0.2,0-0.4,0.1-0.5c0-0.1,0.1-0.1,0.2-0.1c0.1,0,0.1,0,0.2,0H39c0,0,0,0,0-0.1s0,0,0-0.1
			c0.1-0.1,0.2-0.2,0.3-0.2c0.1,0,0.2,0.1,0.3,0.2c0,0,0,0,0,0.1l0,0c0,0,0,0,0,0c0,0,0.1,0,0.1,0c0.1,0,0.1,0,0.2,0
			c0.1,0,0.1,0.1,0.2,0.1c0,0.1,0.1,0.1,0.1,0.2c0,0.1,0,0.1,0,0.2c0,0.1,0,0.1-0.1,0.1c0,0.1-0.1,0.1-0.1,0.2
			c0.1,0,0.2,0.1,0.2,0.2c0,0.1,0,0.1,0,0.2c0.1,0,0.2-0.1,0.3-0.1c0.1,0,0.1,0,0.2,0c0.1,0,0.1,0.1,0.1,0.2c0,0.1,0.1,0.1,0.2,0.2
			c0.1,0,0.1,0.1,0.2,0.1c0.2,0.1,0.3,0.1,0.3,0.5c0,0.1,0,0.2-0.1,0.2c0,0.1-0.1,0.1-0.1,0.1c0,0.1,0.1,0.1,0.1,0.1
			c0.1,0.1,0.3,0.3,0.2,0.6c0,0.1-0.1,0.2-0.2,0.2c0,0-0.1,0-0.1,0c0,0,0,0,0,0c0,0,0,0.1,0,0.1c0,0.2-0.2,0.4-0.3,0.6
			c0,0-0.1,0.1-0.1,0.1c0,0.1,0,0.2,0,0.3c0.1,0.1,0.1,0.2,0.2,0.3c0,0.1,0.1,0.1,0.1,0.2l0,0v0c0.1,0.1,0.1,0.2,0.2,0.3l0.1,0.1
			c0,0,0.1-0.1,0.1-0.1c0,0,0,0,0,0c-0.1-0.1-0.1-0.2-0.1-0.3c0-0.1,0-0.2,0.1-0.3c0,0,0,0,0,0c0,0,0.1-0.1,0.1-0.1
			c0.1,0,0.1-0.1,0.2-0.1h0l0,0c0,0,0,0,0,0l0-0.1c-0.1-0.1-0.1-0.2-0.1-0.3c0-0.1,0-0.2,0.1-0.3c0.1-0.1,0.2-0.2,0.4-0.2
			c0.1,0,0.2,0,0.2,0c0.1,0,0.1,0.1,0.2,0.1c0,0,0,0,0.1,0l0.1,0c0.1-0.1,0.2-0.1,0.4-0.1c0.1,0,0.1,0,0.2,0l0.1,0l0,0.1
			c0,0,0.1,0.1,0.1,0.1c0,0.1,0,0.1,0,0.2c0,0.1,0,0.1,0,0.2c0,0.1,0.1,0.1,0.1,0.2c0,0,0.1,0.1,0.1,0.2v0v0.2c0,0,0,0.1-0.1,0.1
			c-0.1,0.1-0.2,0.2-0.4,0.3c0,0-0.1,0-0.1,0.1c0,0,0,0,0,0c0,0.1,0,0.2,0,0.3c0.1,0,0.1,0,0.2-0.1c0,0,0.1,0,0.1,0
			c0.1,0,0.1,0,0.2,0c0.1,0,0.1,0.1,0.2,0.2c0,0,0.1,0.1,0.1,0.1h0.1c0.1,0,0.2,0,0.2,0c0.1,0,0.1,0.1,0.2,0.1c0,0,0.1,0.1,0.1,0.1
			c0,0.1,0,0.2,0,0.3c0,0,0,0,0,0.1c0,0,0.1,0.1,0.1,0.1c0,0,0,0.1,0,0.1c0,0,0,0.1,0,0.1c0,0,0,0.1,0,0.1c0.1,0.1,0.3,0.2,0.3,0.3
			c0.1,0.1,0.1,0.3,0,0.4c0,0,0,0.1-0.1,0.1l0,0.1l-0.1,0l0,0c0,0,0,0,0,0c0,0.1,0,0.1,0,0.2c0,0.2,0,0.3-0.2,0.5c0,0,0,0-0.1,0.1
			c0,0,0,0,0,0.1c0,0,0,0,0,0c0,0,0,0.1,0,0.1c0,0,0.1,0,0.1,0c0.1,0,0.2,0,0.3,0.1c0.1-0.1,0.1-0.2,0.2-0.2s0.2-0.1,0.3-0.1
			c0,0,0.1,0,0.1,0c0.1,0,0.1,0,0.1,0.1c0,0,0.1,0.1,0.1,0.2c0,0.1,0,0.1,0.1,0.2c0.1,0.1,0.2,0.1,0.3,0.1c0.2,0.1,0.4,0.1,0.4,0.5
			c0,0.3-0.2,0.4-0.4,0.5c-0.1,0-0.1,0.1-0.2,0.1c0,0,0,0,0,0.1c0,0.1,0,0.1,0,0.2c0,0-0.1,0.1-0.1,0.1c0,0,0,0-0.1,0
			c0,0-0.1,0.1-0.2,0.1h-0.1c-0.1,0-0.2,0-0.3-0.1c-0.1,0-0.1-0.1-0.2-0.2l0,0c0,0-0.1,0-0.1,0H45c-0.1,0-0.1,0-0.2-0.1
			c0,0-0.1,0-0.1,0l0,0c-0.1-0.1-0.2-0.1-0.2-0.1l-0.1-0.1l0.1,0.1c-0.1,0-0.1,0.1-0.2,0.1H44l0-0.1v0.1l0,0c0,0,0,0.1,0,0.1
			c0,0,0,0.1,0,0.1c0.1,0.1,0.1,0.3,0.1,0.4c0,0.1,0,0.2,0,0.3c0,0.1,0,0.2,0,0.3c0,0.2,0,0.3,0,0.3c0,0.1,0,0.2,0,0.3
			c0,0.3,0,0.7,0.1,1c0,0.2,0,0.3,0,0.5c0,0,0,0,0.1,0c0.1,0,0.2-0.1,0.2-0.1c0-0.1,0-0.2-0.1-0.3c0,0,0-0.1,0-0.1c0,0,0-0.1,0-0.1
			c0-0.1,0.1-0.1,0.2-0.2c0.1,0,0.1-0.1,0.2-0.1h0c0,0,0-0.1,0-0.1c0,0,0-0.1,0-0.1c0-0.1,0-0.3,0-0.4c0-0.1,0.1-0.2,0.1-0.2
			c0.1-0.1,0.2-0.1,0.3-0.1c0,0,0.1,0,0.1,0c0.1,0,0.2,0,0.3,0.1l0,0l0,0c0,0,0.1-0.1,0.1-0.1c0-0.1,0.1-0.2,0.2-0.2
			c0,0,0.1,0,0.1,0c0.4,0.1,0.5,0.3,0.4,0.5c0,0.1,0,0.1,0,0.1c0,0,0,0,0,0.1c0,0,0,0.1,0,0.1c0.2,0.1,0.4,0.1,0.4,0.5
			c0,0.1-0.2,0.1-0.3,0.2c0,0-0.1,0-0.1,0c0,0-0.1,0.1-0.1,0.1c-0.1,0.1-0.2,0.3-0.4,0.3h0h0c-0.1,0-0.1,0-0.1,0.1c0,0,0,0.1,0,0.1
			c0,0,0,0.1,0,0.1l0,0l0,0c-0.1,0.2-0.3,0.2-0.5,0.2c-0.1,0-0.1,0-0.2,0c0.1,0.1,0.4,0.3,0.2,0.5c0,0-0.1,0.1-0.1,0.1c0,0,0,0,0,0
			l0,0l0,0l-0.1,0l-0.2,0c-0.1,0-0.1,0-0.2,0.1c-0.1,0-0.1,0.1-0.1,0.1c0,0,0,0.1-0.1,0.1c0,0,0,0,0,0.1c0,0,0,0,0,0
			c0,0.1,0,0.3,0,0.4c0,0.3,0,0.6,0,0.9c0,0,0,0.1-0.1,0.1v0l0.1,0c0,0,0.1,0,0.1,0l0.1,0c0,0,0.1,0,0.1,0c0,0,0.1,0,0.1-0.1
			c0-0.1,0.2-0.5,0.2-0.6l0-0.1c0-0.1,0.1-0.2,0.1-0.2c0,0,0.1-0.1,0.1,0c0,0,0.1,0,0.1,0c0,0,0,0,0.1,0.1c0-0.1,0.1-0.1,0.1-0.2
			c0-0.1,0.1-0.2,0.2-0.3l0,0l0.1,0h0.1c0,0,0,0,0.1,0c0,0,0-0.1,0-0.1c0.1-0.2,0.3-0.5,0.5-0.5c0.1,0,0.1,0,0.2,0.1
			s0.1,0.1,0.2,0.1c0,0.1,0.1,0.1,0.1,0.2c0.1,0.1,0.1,0.1,0.1,0.1c0.1,0,0.1,0,0.2,0c0.1,0,0.1,0,0.2,0c0,0,0.1,0,0.1,0l0.1,0
			c0.1,0,0.2,0.1,0.3,0.1c0.1,0.1,0.1,0.2,0.2,0.3c0,0.1,0,0.2,0,0.3c0,0.1-0.1,0.2-0.2,0.2c0,0,0,0,0,0v0l0,0.1h0c0,0-0.1,0-0.1,0
			c0,0-0.1,0-0.1,0c0,0,0,0,0,0c0,0,0,0,0,0c0,0.1,0,0.2,0,0.3c0,0.1-0.1,0.2-0.2,0.3l0,0c0,0-0.1,0.1-0.1,0.1c-0.1,0-0.1,0-0.2,0
			c0,0-0.1,0-0.1,0c-0.1,0-0.2-0.1-0.3-0.1l0,0l0,0.1c0,0.1-0.1,0.1-0.2,0.2h0c0,0-0.1,0-0.1,0c0,0-0.1-0.1-0.1-0.1c0,0,0,0,0,0
			c0,0,0,0.1-0.1,0.1h0c0.1,0,0.2,0,0.2,0.1c0,0.1,0.1,0.1,0.1,0.2c0,0,0,0,0,0c0,0,0.1,0.1,0.2,0.1c0.1,0,0.1,0,0.2-0.1
			c0.1,0,0.1,0,0.2,0c0.1,0,0.2,0,0.3,0.1h0c0,0,0,0,0.1,0c0,0,0,0,0,0c0,0.1,0,0.2,0,0.3c0,0,0,0,0,0c0.1,0,0.1,0,0.2,0
			c0.1,0,0.1,0,0.2,0c0.1,0,0.1,0.1,0.2,0.1c0.2,0.2,0.1,0.4-0.1,0.6l0,0.1c0,0,0,0,0.1,0.1c0.1,0.1,0.3,0.3,0.1,0.5
			c0,0.1-0.1,0.1-0.2,0.1c-0.1,0-0.1,0-0.2,0c-0.1,0-0.1,0-0.2,0c-0.1,0-0.1,0-0.2,0c0,0-0.1,0-0.1,0c-0.2,0.1-0.4,0.2-0.7,0.2
			c-0.1,0-0.2,0-0.3,0S46,34.1,45.9,34c0,0,0-0.1,0-0.1c0,0,0-0.1,0-0.1c0,0,0-0.1,0.1-0.1c0,0,0,0,0-0.1c-0.1,0-0.2-0.1-0.3-0.2
			c-0.1-0.1-0.1-0.2-0.1-0.3h-0.1c0,0-0.1,0-0.1,0c0,0-0.1,0-0.1-0.1c-0.1-0.1-0.1-0.2-0.1-0.3c0-0.1,0-0.1-0.1-0.1l-0.1,0l0-0.1
			c0,0,0-0.1,0-0.1l0,0c0,0-0.1,0-0.1,0l-0.1,0v0c0,0-0.1,0-0.1,0l0,0c-0.1-0.1-0.2-0.1-0.3-0.1h-0.1c-0.1,0-0.2,0-0.2,0.1
			c-0.2,0.2-0.5,0.4-0.7,0.7l-0.2,0.2c0.1-0.1,0.2-0.1,0.4-0.1h0c0,0,0.1,0,0.1,0.2c0.1,0,0.2,0.1,0.3,0.1c0.2,0.1,0.3,0.2,0.4,0.4
			h0c0,0,0.1,0,0.1,0c0,0,0,0,0.1,0.1c0,0,0,0,0,0.1v0.1l-0.1,0.1c0,0-0.1,0-0.2,0c0,0,0,0,0,0.1c0,0.1-0.1,0.2-0.2,0.2
			c-0.1,0-0.1,0-0.2,0h-0.1c0,0-0.1,0-0.1,0c0,0-0.1,0-0.1,0l-0.1,0c-0.1,0.1-0.1,0.1-0.2,0.1c0,0-0.1,0-0.1,0c-0.1,0-0.1,0-0.2-0.1
			l0-0.1l-0.1,0.1c-0.1,0-0.1-0.1-0.2-0.2c0-0.1-0.1-0.1-0.1-0.2c0-0.1,0-0.1,0-0.1c-0.1,0-0.3,0.1-0.4,0.1c-0.1,0-0.1,0.1-0.2,0.2
			c0,0.1-0.1,0.1-0.1,0.2l-0.1,0.1C42,34.6,41.9,34.8,42,35c0,0,0.1,0,0.1-0.1c0.1,0,0.2-0.1,0.2-0.1c0.2,0,0.8-0.2,0.8-0.2
			c0.1,0,0.3-0.1,0.4-0.1l0.1,0c0.1,0,0.2,0,0.3-0.1l0.1,0c0.1,0,0.2-0.1,0.3-0.1c0.1-0.1,0.2-0.1,0.2-0.1c0,0,0.1,0,0.1-0.1
			c0.1-0.1,0.2-0.1,0.3-0.1c0.1,0,0.2,0,0.3,0.1c0.1,0,0.1,0.1,0.1,0.2c0.2-0.1,0.4-0.1,0.5-0.2c0.1,0,0.1,0,0.2,0.1
			c0.1,0,0.1,0.1,0.1,0.1c0,0.1,0.1,0.1,0.1,0.2c0,0,0.1,0,0.1-0.1c0.1,0,0.1-0.1,0.2-0.1c0,0,0,0,0.1,0c0,0,0.1,0,0.2,0
			c0,0,0.1,0,0.1,0c0.1,0,0.1,0,0.2,0.1c0,0,0.1,0.1,0.1,0.1c0,0,0,0.1,0,0.2c0,0.1,0,0.1,0,0.2c0,0,0,0.1,0,0.1c0,0,0,0,0.1,0
			l0.1,0.1c0,0,0.1,0.1,0.1,0.1c0,0,0,0.1,0,0.1c0,0.4,0,0.6-0.5,0.8c-0.1,0-0.2,0-0.3,0h-0.1l0-0.1h0c-0.1,0-0.1,0.1-0.2,0.1l0,0
			c0.3,0.1,0.3,0.2,0.4,0.6l0,0c0.1,0.1,0.1,0.1,0.2,0.2c0,0.1,0,0.2,0,0.4s-0.1,0.2-0.2,0.3c-0.1,0.1-0.3,0.1-0.4,0.1
			c-0.1,0-0.2,0-0.3,0c-0.1,0-0.1,0-0.2-0.1l-0.1,0.1c-0.1,0.1-0.1,0.1-0.2,0.1c0,0-0.1,0-0.1,0c-0.1,0-0.1,0-0.2,0
			c-0.1,0-0.1-0.1-0.1-0.2c0,0,0,0,0-0.1c0-0.1-0.1-0.1-0.1-0.2c0-0.1,0-0.1,0-0.2c0-0.1,0-0.1,0-0.1c0,0-0.1,0-0.1-0.1
			c0,0,0,0-0.1,0l0,0h0c0,0-0.1,0.1-0.1,0.1c-0.1,0-0.1,0.1-0.1,0.1c0,0,0.1,0.1,0,0.1c0,0.1,0,0.2-0.1,0.3
			c-0.1,0.1-0.2,0.2-0.3,0.2c-0.1,0-0.2,0-0.2,0h-0.1v1.4l-0.1,0c-0.1,0-0.1,0-0.2-0.1c-0.1,0-0.1-0.1-0.2-0.1
			c0-0.1-0.1-0.1-0.2-0.1h0c0,0-0.1,0-0.1,0c0,0-0.1,0-0.1,0h-0.1c0,0-0.1,0-0.1,0V39c0,0.1,0,0.1,0,0.1c0,0,0.1,0,0.1,0h0.1
			c0.1,0,0.1,0,0.1,0.1c0,0,0.1,0.1,0.1,0.1c0,0.1,0.1,0.2,0.1,0.2c0,0.1,0,0.2-0.1,0.3c0,0,0,0,0,0.1c0,0,0.1,0.1,0.1,0.2
			c0.2,0.4,0,0.7-0.2,0.9c0,0,0,0-0.1,0c-0.1,0.1-0.2,0.1-0.4,0.1c0,0-0.1,0-0.1,0c-0.1,0-0.1,0-0.2-0.1c-0.1-0.1-0.1-0.1-0.1-0.2
			c0,0,0-0.1,0-0.1l-0.2,0c-0.1,0-0.1,0-0.2,0c-0.1,0-0.1,0-0.1,0c-0.1,0-0.1-0.1-0.1-0.2c-0.1-0.1-0.1-0.3-0.1-0.4
			c0-0.1,0-0.1,0.1-0.1c-0.1-0.2-0.2-0.4-0.2-0.6c0-0.1,0-0.1,0.1-0.2c-0.3-0.1-0.3-0.4-0.3-0.5c0,0,0-0.1,0-0.1
			c0-0.1-0.1-0.2-0.1-0.3c0-0.1-0.1-0.1-0.1-0.1c-0.1-0.1-0.2-0.2-0.4-0.2l-0.3,0c-0.1,0-0.2,0-0.4,0c-0.1,0-0.1,0-0.2,0
			c0,0-0.1,0-0.1,0c0,0-0.1,0-0.1,0c-0.3,0.2-0.5,0.4-0.6,0.6c0,0.1-0.1,0.1-0.1,0.2c-0.1,0.1-0.3,0.3-0.4,0.4
			c-0.1,0.2-0.3,0.4-0.4,0.5c0,0,0,0.1-0.1,0.1c0,0-0.1,0.1-0.1,0.1c-0.1,0.1-0.2,0.2-0.3,0.3c-0.1,0.1-0.2,0.2-0.2,0.3l0,0v0.1v0.4
			c0.1,0,0.2,0,0.3,0.1l0.1,0l0,0.1c0,0,0,0.1,0,0.1c0.1,0.1,0.1,0.1,0.2,0.2s0.1,0.2,0.1,0.3c0,0.1,0,0.1-0.1,0.2l0,0.1l-0.1,0
			c-0.1,0-0.2,0.1-0.3,0.1c-0.1,0-0.1,0-0.2-0.1c0,0-0.1,0-0.1-0.1h-0.1c0,0-0.1,0-0.1,0h0L37,42c-0.1,0-0.1-0.1-0.1-0.1
			c0-0.1,0-0.2,0-0.3c0-0.1,0-0.1,0-0.1c-0.1-0.1-0.1-0.1-0.2-0.1c-0.1,0-0.1,0-0.2,0.1c-0.1,0-0.1,0.1-0.2,0.1
			c-0.1,0-0.1,0-0.2,0.1c0,0,0,0-0.1,0c-0.2,0.1-0.3,0.1-0.4,0.2c0,0-0.1,0-0.1,0.1c-0.1,0.1-0.2,0.1-0.2,0.1
			c-0.1,0-0.3,0.1-0.4,0.1c-0.1,0-0.3,0.1-0.4,0.1l0,0c-0.2,0.1-0.4,0.1-0.6,0.2l-0.3,0.1l-0.3,0.2h0.1c0,0,0.1,0,0.1,0
			c0,0,0.1,0,0.1,0h0.1h0.3c0.2,0,0.3,0,0.5,0c0.1,0,0.3,0,0.4,0c0.3,0,0.6-0.1,0.9-0.3c0.2-0.1,0.4-0.3,0.5-0.5
			c0-0.1,0.1-0.1,0.2-0.1c0,0,0.1,0,0.1,0c0,0,0.1,0,0.1,0c0,0,0,0,0,0c0.1,0,0.1,0,0.2,0c0,0,0,0.1,0,0.2v0c0.1,0,0.2,0.1,0.2,0.1
			c0.1,0,0.2,0.1,0.3,0.1l0.1,0c0.1,0,0.2,0,0.3,0H38c0.1,0,0.1,0,0.2,0c0.4,0,0.4,0.1,0.4,0.1c0,0.1,0,0.2-0.1,0.3
			c0,0-0.1,0.1-0.1,0.1s-0.1,0-0.1,0c0,0-0.1,0-0.1,0c-0.1,0-0.2,0-0.3,0c-0.1,0-0.1,0-0.2,0c-0.1,0-0.1,0-0.2,0c0,0-0.1,0-0.2,0
			c-0.1,0-0.1,0-0.1,0c-0.2,0-0.3-0.1-0.5-0.2c-0.1,0-0.2-0.1-0.3-0.1h-0.2c-0.1,0-0.2,0-0.3,0.1c-0.1,0.1-0.2,0.1-0.3,0.1
			c-0.1,0-0.2,0.1-0.2,0.1c0,0,0.1,0.1,0.1,0.1c0,0,0.1,0,0.1,0c0.1,0,0.1,0,0.2,0c0.1,0,0.1,0,0.2,0c0.2,0,0.4,0,0.5,0.1
			c0,0,0.1,0,0.1,0c0.1,0,0.1-0.1,0.2-0.1l0.1,0c0,0,0.1,0,0.2,0c0.1,0,0.2,0.1,0.3,0.2c0,0,0,0.1,0,0.1c0,0,0,0.1,0,0.1
			c0,0,0,0,0,0l0,0c0,0,0.1,0,0.1-0.1c0.1-0.1,0.2-0.2,0.4-0.2c0.1,0,0.1,0,0.2,0.1c0.1,0,0.1,0.1,0.2,0.1c0.1,0.1,0.1,0.1,0.1,0.2
			c0,0.1,0,0.1,0,0.2l0.1,0c0.2,0.1,0.4,0.2,0.4,0.6c0,0,0,0.1-0.1,0.1c0,0-0.1,0.1-0.1,0.1l-0.1,0c0,0-0.1,0.1-0.1,0.1
			c0,0.1,0,0.1-0.1,0.2c-0.1,0-0.1,0.1-0.2,0.1h-0.1c-0.1,0-0.1,0-0.2,0c0,0-0.1,0-0.1,0c0,0-0.1,0-0.1,0h0c0.1,0.1,0.2,0.1,0.2,0.2
			l0,0c0,0,0.1,0.1,0.1,0.2c0,0.1,0,0.1,0,0.2c0,0,0,0,0,0.1c0,0,0,0,0,0.1c0,0-0.1,0-0.1,0.1h0c0,0,0,0.1,0.1,0.1
			c0.1,0.2,0.3,0.5,0.1,0.7c-0.1,0.1-0.2,0.1-0.3,0.1c0,0,0,0-0.1,0c-0.2,0-0.3-0.1-0.4-0.1c-0.1,0-0.1-0.1-0.1-0.1L37,46.2l0,0
			c0,0-0.1,0-0.1,0c-0.1,0-0.1,0-0.2,0h-0.1c-0.5,0-0.5-0.2-0.5-0.5c0-0.1,0-0.1,0-0.2c0-0.1,0.1-0.1,0.1-0.1c0,0,0-0.1,0.1-0.1h0
			l-0.1,0c0,0-0.1,0-0.1,0l-0.1,0v0c0,0-0.1,0-0.1,0c-0.1,0-0.1-0.1-0.1-0.2c0-0.1-0.1-0.1-0.1-0.2c0-0.1,0-0.1,0-0.2
			c-0.1-0.1-0.1-0.1-0.2-0.2c-0.1-0.1-0.2-0.2-0.2-0.3c0-0.1,0-0.3,0-0.4c0-0.1,0-0.2,0-0.3h0l0-0.1c-0.1-0.1-0.3-0.2-0.4-0.2
			c-0.1,0-0.2,0-0.2,0c-0.1,0-0.1,0-0.2,0l-0.2,0c0.1,0,0.1,0.1,0.2,0.2c0,0.1,0,0.1,0,0.2c0,0,0,0,0.1,0l0.1,0c0.1,0,0.2,0,0.3,0.1
			c0.1,0,0.1,0.1,0.2,0.2c0,0.1,0.1,0.1,0.1,0.2c0,0.1,0,0.1,0,0.2c0,0.1-0.1,0.1-0.1,0.2s-0.1,0.1-0.2,0.1c-0.1,0-0.2,0.1-0.3,0.1
			c-0.1,0-0.1,0-0.2,0h0c-0.1,0-0.1,0-0.2-0.1c0,0-0.1,0-0.1,0l0,0c0,0-0.1,0.1-0.1,0.1c-0.1,0-0.1,0-0.2,0h-0.1
			c-0.2,0-0.3-0.1-0.5-0.2c0,0,0,0,0,0c0,0,0,0,0,0c0-0.1-0.1-0.1-0.1-0.1c-0.1,0-0.1,0-0.2-0.1l-0.1,0v0c-0.2,0-0.3-0.1-0.4-0.2
			l0,0H32l0-0.1c-0.1-0.1-0.3-0.1-0.4-0.2c0,0,0,0-0.1,0c-0.3,0-0.5,0.1-0.8,0.2c-0.1,0-0.1,0.1-0.2,0.1c-0.4,0.2-0.7,0.3-0.7,0.4
			c0.1,0,0.2,0,0.2,0c0.1,0,0.2,0,0.3,0c0.4,0.1,0.8,0.2,1.1,0.4l0.1,0.1c0,0,0.5,0.3,0.5,0.4c0,0.1,0,0.1,0,0.2
			c0,0.1-0.1,0.1-0.1,0.2c0,0,0,0-0.1,0.1c0,0-0.1,0-0.1,0h0l-0.1,0c-0.3-0.1-0.5-0.3-0.8-0.4c-0.2-0.1-0.4-0.2-0.6-0.2
			c-0.3-0.1-0.5-0.2-0.8-0.2c0.1,0.1,0.2,0.2,0.4,0.3c0.1,0,0.2,0.1,0.2,0.2c0,0,0.5,0.4,0.8,0.5c0.1,0.1,0.2,0.1,0.4,0.2
			c0,0,0.1,0,0.1,0c0.1,0,0.2,0.1,0.3,0.1c0,0,0.1,0.1,0.1,0.1c0,0.1,0,0.1,0,0.2c0,0.1,0,0.1-0.1,0.1c0,0-0.1,0.1-0.1,0.1
			c0,0-0.1,0-0.1,0c-0.4,0-0.7-0.3-1-0.5l-0.1-0.1c-0.1-0.1-0.2-0.1-0.3-0.2c-0.2-0.1-0.4-0.3-0.6-0.4c-0.1-0.1-0.2-0.1-0.2-0.2
			c-0.1-0.1-0.2-0.2-0.4-0.3c-0.2,0.2-0.4,0.4-0.6,0.6c-0.3,0.3-0.5,0.6-0.7,0.9l0,0c0,0-0.1,0.1-0.1,0.1l-0.1,0.1l-0.1,0.1
			c0,0.1-0.1,0.1-0.1,0.1C27.1,47,27,47,26.9,47L26.9,47z M26.2,43.1c0.1,0.1,0.2,0.1,0.3,0.2c0.3,0.2,0.7,0.3,1.1,0.4
			c-0.1-0.1-0.1-0.1-0.2-0.1c-0.2-0.2-0.4-0.4-0.5-0.6l-0.2-0.3l-0.1-0.1c0,0-0.1-0.1-0.1-0.1l-0.1-0.1c-0.2-0.1-0.4-0.3-0.6-0.5
			c-0.2,0-0.4,0.1-0.6,0.2l-0.2,0.1c0,0,0.1,0.1,0.2,0.1c0.2,0.1,0.3,0.2,0.4,0.3C25.7,42.8,25.9,42.9,26.2,43.1L26.2,43.1z
			 M20.2,40.5c0,0-0.2,0.2-0.2,0.2c-0.1,0.1-0.1,0.1-0.2,0.1l0,0c0,0-0.2,0.4-0.2,0.4c0,0.1,0,0.1,0,0.2c0.2,0.3,0.4,0.6,0.6,0.9
			c0.1,0.1,0.2,0.2,0.3,0.3c0.1,0.1,0.1,0.1,0.1,0.2c0,0.1,0.1,0.1,0.1,0.2c0.1,0.1,0.2,0.3,0.3,0.5l0,0c0,0,0,0,0.1-0.1
			c0,0,0.1-0.1,0.1-0.1c0-0.2,0.1-0.3,0.2-0.4l0.1-0.1c0.1-0.1,0.6-0.5,0.7-0.6c0.1,0,0.2-0.1,0.3-0.1c0.2-0.1,0.4-0.1,0.6-0.1
			c0,0,0.1,0,0.1,0c0.1,0,0.1,0,0.2,0.1c0,0,0.1,0,0.1,0c0,0,0,0,0.1,0h0c-0.2-0.1-0.3-0.3-0.5-0.4l-0.1-0.1
			c-0.1-0.1-0.2-0.3-0.4-0.3c-0.2-0.1-0.4-0.2-0.6-0.2c-0.1,0-0.2,0-0.3-0.1c-0.2,0.1-0.3,0.1-0.4,0.2c0,0,0,0-0.1,0.1l0.1,0
			c0.1,0,0.2,0.1,0.2,0.2c0.1,0.1,0.1,0.2,0.2,0.3s0,0.2,0,0.4c0,0.1-0.1,0.2-0.2,0.3c-0.1,0.1-0.2,0.1-0.3,0.1c-0.1,0-0.1,0-0.2,0
			c-0.1,0-0.1,0-0.2,0c-0.4-0.2-0.5-0.3-0.5-0.7v-0.1c0-0.4,0.4-0.8,0.7-1c-0.1,0-0.2-0.1-0.3-0.1C20.5,40.6,20.3,40.5,20.2,40.5
			L20.2,40.5z M19,41.4c-0.1,0.1-0.2,0.2-0.2,0.4c0,0.2,0.1,0.4,0.2,0.5c0-0.2,0-0.4,0-0.5C19,41.6,19,41.5,19,41.4L19,41.4z
			 M24.1,41.8c0,0,0.1,0,0.2,0.1l0.2-0.1c0.2-0.1,0.3-0.1,0.5-0.1h0l0,0c0,0-0.1,0-0.1-0.1c-0.1-0.1-0.3-0.1-0.4-0.1
			c-0.1,0-0.2,0-0.2-0.1l-0.4,0l0-0.1c0,0,0,0,0,0c0,0-0.1,0-0.3,0h0c0,0,0,0,0.1,0.1C23.7,41.5,23.9,41.7,24.1,41.8L24.1,41.8
			L24.1,41.8z M19.2,38.6c0.1,0.2,0.3,0.4,0.4,0.5l0.1,0.1c0.2,0.3,0.5,0.6,0.8,0.7c0.4,0.2,0.9,0.4,1.4,0.5h0
			c-0.2-0.2-0.3-0.4-0.6-0.6l0,0l0,0c-0.1-0.1-0.1-0.2-0.2-0.2c-0.1-0.1-0.2-0.1-0.2-0.2c-0.3-0.2-0.7-0.4-1.1-0.6l-0.3-0.1
			l-0.2-0.1C19.3,38.6,19.2,38.6,19.2,38.6L19.2,38.6z M37.9,38.9c-0.1,0-0.1,0.1-0.2,0.1c-0.1,0.2-0.2,0.4-0.2,0.6c0,0,0-0.1,0-0.1
			c0-0.1,0-0.1,0.1-0.2C37.7,39.2,37.8,39.1,37.9,38.9L37.9,38.9z M18.5,39.2c0.1,0,0.1,0,0.2,0c0.1,0,0.1,0,0.2,0.1l0.1,0v0
			c-0.1-0.1-0.2-0.2-0.2-0.3h0l0-0.1c0,0,0-0.1-0.1-0.1l0,0l-0.1-0.1c-0.1-0.2-0.3-0.5-0.5-0.7c-0.3-0.3-0.6-0.7-1-0.9l-0.1,0v0
			c0,0,0-0.1-0.1-0.1C16.9,37,16.7,37,16.6,37c0.4,0.2,1,0.4,1,0.5c0,0,0.5,0.7,0.6,1c0,0.1,0,0.1,0,0.2c0,0.1,0,0.2,0,0.3
			L18.5,39.2L18.5,39.2z M42,38.3c0.1,0.1,0.1,0.2,0.2,0.3c0,0,0,0,0.1,0.1l0,0.1l0-0.1c0,0,0.1,0,0.1,0h0l0,0
			c-0.1-0.1-0.1-0.1-0.2-0.2l-0.1,0C42.2,38.4,42.2,38.4,42,38.3C42.1,38.3,42.1,38.3,42,38.3L42,38.3z M17.6,36.1
			c0,0-0.1,0.1-0.1,0.1c0,0-0.1,0-0.1,0.1c-0.1,0.1-0.1,0.1,0.1,0.3l0.1,0.1c0.2,0.2,0.5,0.4,0.7,0.7c0.2,0.1,0.3,0.2,0.5,0.4
			c0.1,0.1,0.2,0.1,0.4,0.2l0,0c0.2,0.1,0.4,0.2,0.5,0.2c0-0.2-0.2-0.4-0.4-0.5l-0.1,0c-0.1,0-0.1-0.1-0.2-0.1
			c-0.1,0-0.1-0.1-0.2-0.1c0-0.1-0.1-0.1-0.1-0.2l-0.1-0.1L18.6,37c-0.3-0.2-0.4-0.9-0.5-1.4c0,0,0-0.1,0-0.1c0,0,0,0,0-0.1
			c0,0.1,0,0.1-0.1,0.1c0,0,0,0.1,0,0.1c0,0.1,0,0.1-0.1,0.2c0,0,0,0.1-0.1,0.1C17.7,36,17.7,36,17.6,36.1L17.6,36.1L17.6,36.1z
			 M20.2,37.4c0,0,0,0.1,0,0.1l0,0.2c0,0.1,0.1,0.2,0.1,0.3c0-0.1,0-0.2,0-0.3C20.3,37.6,20.2,37.5,20.2,37.4z M43.3,37.6
			c0.1,0,0.2,0.1,0.3,0.2l0.2-0.1c-0.1,0-0.1-0.1-0.1-0.2c-0.1-0.1-0.1-0.2-0.2-0.4c0,0,0-0.1,0-0.1c0,0.1,0,0.2-0.1,0.3
			C43.4,37.6,43.4,37.6,43.3,37.6L43.3,37.6z M38.7,36.9L38.7,36.9c0,0.2,0,0.2,0,0.3c0,0,0,0.1,0,0.1c0.1,0,0.1,0.1,0.1,0.2
			c0,0.1,0,0.2,0,0.2c0,0,0,0,0,0.1c0.1-0.1,0.1-0.1,0.2-0.2c0.1-0.1,0.1-0.1,0.2-0.2c0-0.1-0.1-0.1-0.1-0.2h0l0-0.1
			c0-0.1,0-0.2,0-0.3c0-0.1,0.1-0.2,0.1-0.2l0,0l0.1,0c0,0,0.1,0,0.1,0c0-0.1,0-0.2,0-0.3c0,0,0-0.1,0-0.1c-0.1,0-0.1,0-0.2,0
			c-0.1,0-0.2,0-0.3,0c-0.1,0-0.2,0.1-0.2,0.2c0,0.1-0.1,0.1-0.2,0.1h0c0.1,0,0.1,0.1,0.2,0.1C38.6,36.8,38.7,36.9,38.7,36.9
			L38.7,36.9z M40.7,37.4c0.1,0,0.3,0,0.4-0.1c0.1,0,0.1-0.1,0.1-0.1c0,0,0-0.1,0.1-0.1c-0.1,0-0.3,0.1-0.4,0.2
			C40.8,37.3,40.8,37.3,40.7,37.4C40.7,37.4,40.7,37.4,40.7,37.4L40.7,37.4z M40.3,35.9c-0.1,0.1-0.3,0.3-0.4,0.5c0,0,0,0.1,0,0.1
			c-0.1,0.2-0.1,0.3-0.1,0.5c0,0.1,0,0.2,0,0.3c0,0,0,0.1,0,0.1l0,0c0,0,0.1-0.1,0.1-0.1c0.2-0.1,0.5-0.3,0.7-0.5
			c0,0,0.1-0.1,0.1-0.1c0,0,0,0,0,0c0.2-0.5,0.4-1,0.6-1.5c0.1-0.2,0.1-0.4,0.1-0.5l0-0.2l0-0.1c0-0.1,0-0.1,0-0.1
			c0,0,0-0.1-0.1-0.1l0,0l0,0.1c0,0-0.1,0.1-0.1,0.1c0,0,0,0.1,0,0.1c0,0.1,0,0.1,0,0.2l0,0.1c0,0.1-0.1,0.2,0,0.3
			c0,0.2,0,0.6-0.3,0.6c-0.1,0-0.2,0.1-0.3,0h-0.1c0,0,0,0-0.1,0.1c0,0,0,0.1-0.1,0.1l0,0L40.3,35.9L40.3,35.9z M41.7,36.8
			c0,0,0.1,0,0.1,0c0,0,0.1,0,0.1,0.1l0,0c0-0.1,0.1-0.2,0.2-0.3l0.1,0c0.1,0,0.1,0,0.2-0.1h0l0.1,0c0.1,0,0.1,0.1,0.2,0.2l0,0.1
			c0,0,0.1,0,0.1-0.1l0,0l0,0h0.1c0.1,0,0.1,0,0.2,0h0.1c0-0.2,0-0.3,0.1-0.5c0,0,0,0-0.1-0.1c0,0,0-0.1,0-0.1L43,36.1v-0.2
			c0-0.1,0-0.2,0.1-0.3c0,0,0-0.1,0-0.2c0,0,0,0-0.1,0c0,0-0.1,0-0.1,0c0,0,0,0-0.1,0c-0.1,0-0.3,0.1-0.4,0.1h-0.1l-0.1,0l-0.1,0
			c-0.1,0-0.2,0-0.2,0.1c-0.1,0.2-0.2,0.5-0.3,0.7l-0.1,0.2c0,0,0,0,0,0c0.1,0,0.2,0,0.2,0.1c0,0,0,0.1,0,0.1S41.7,36.8,41.7,36.8
			L41.7,36.8C41.6,36.8,41.6,36.8,41.7,36.8C41.6,36.8,41.6,36.8,41.7,36.8L41.7,36.8z M16,34.3c0.1,0.2,0.2,0.5,0.3,0.6
			c0.1,0.1,0.2,0.2,0.2,0.3c-0.1-0.3-0.1-0.7,0-1c0,0,0-0.1,0-0.1c0-0.1,0-0.2,0.1-0.2c0,0,0,0,0-0.1l0,0
			C16.6,34.2,16.5,34.3,16,34.3L16,34.3z M44.2,35c0.1,0,0.1,0.1,0.2,0.1l0,0l0.2,0C44.5,35.1,44.4,35.1,44.2,35L44.2,35z M43,33.2
			c-0.1,0.1-0.1,0.1-0.2,0.2c0,0-0.1,0.1-0.1,0.1c0,0,0.1,0,0.1,0C42.9,33.4,42.9,33.3,43,33.2L43,33.2z M42.3,32.9c0,0,0,0.1,0,0.1
			C42.4,33,42.4,32.9,42.3,32.9l0.1-0.1L42.3,32.9C42.3,32.8,42.3,32.8,42.3,32.9L42.3,32.9z M43.1,31.6c0,0.1-0.1,0.2-0.2,0.3
			c0,0.1-0.1,0.1-0.1,0.2c0,0.1,0,0.2,0,0.2c0,0.1,0,0.1,0,0.2c0-0.1,0.1-0.1,0.1-0.2c0.2-0.2,0.3-0.4,0.5-0.5
			c0.1-0.2,0.2-0.4,0.2-0.6c0-0.3,0-0.5,0-0.8c0-0.1,0-0.2,0-0.3c0-0.2,0-0.3-0.1-0.5c0,0-0.1,0-0.1,0l-0.1-0.1c0,0,0,0,0,0.1
			c0,0.1-0.1,0.3-0.2,0.4c0.1,0,0.1,0,0.2,0.1c0.2,0.2,0.1,0.4,0,0.5l0,0.1c0,0,0,0.1,0,0.1c0,0,0,0.1,0,0.1c0,0,0,0-0.1,0.1
			L43.1,31c0,0,0,0,0.1,0.1l0,0l0,0.1v0.1c0,0,0,0.1,0,0.1c0,0,0,0.1,0,0.1L43.1,31.6L43.1,31.6z M13.9,29C13.9,29,14,29.1,13.9,29
			c0.1,0.1,0.1,0.2,0.1,0.4c0,0.2,0,0.3,0,0.5c0.1,0.1,0.2,0.2,0.3,0.3c0-0.1,0-0.2,0-0.3c0-0.2,0-0.3,0-0.5
			c-0.1-0.1-0.2-0.1-0.2-0.2L13.9,29C14,29.1,13.9,29,13.9,29z M14.8,26.5c-0.2,0.5-0.3,1.1,0,2.7c0,0,0-0.1,0.1-0.1
			c0.3-0.6,0.2-1.8,0-2.4C14.9,26.6,14.8,26.6,14.8,26.5z M43.6,25.7L43.6,25.7L43.6,25.7c0,0,0-0.1-0.1-0.2
			c-0.1-0.1-0.1-0.1-0.1-0.2C43.4,25.3,43.5,25.6,43.6,25.7z M13.8,24.8c0.2,0,0.4,0.1,0.5,0.2c0.1,0.1,0.1,0.1,0.2,0.2
			c0.1,0.1,0.2,0.2,0.3,0.2c0,0,0-0.1,0-0.1c0-0.1,0-0.1,0.1-0.2c0-0.1,0.1-0.2,0.1-0.3s0-0.2-0.1-0.3c-0.1-0.2-0.2-0.3-0.4-0.5
			c0,0,0,0.1,0,0.1c-0.2,0.3-0.6,0.6-0.9,0.7c0,0,0.1,0,0.1,0L13.8,24.8L13.8,24.8z M42.7,24.8c0.2,0,0.2,0.1,0.3,0.3l0,0v0
			c0,0,0.1,0,0.1,0c0.1,0,0.1,0,0.2,0.1l0,0c-0.1-0.1-0.1-0.3-0.2-0.4l-0.1,0c0,0,0,0-0.1,0c-0.1,0-0.1,0-0.2,0
			C42.8,24.8,42.7,24.8,42.7,24.8L42.7,24.8z M43.8,24.4c-0.1,0.1-0.2,0.1-0.2,0.2c0,0,0,0.1,0.1,0.1c0,0,0-0.1,0-0.1
			C43.8,24.5,43.8,24.5,43.8,24.4L43.8,24.4z M14.8,22.8c0,0.3,0.1,0.6,0.2,0.9c0,0,0.1,0.2,0.1,0.2c0-0.1-0.1-0.3-0.1-0.4
			C15,23.3,15,23.2,15,23C14.9,22.9,14.9,22.9,14.8,22.8C14.9,22.8,14.9,22.8,14.8,22.8C14.8,22.8,14.8,22.8,14.8,22.8z M42.5,22
			c0.1,0.1,0.2,0.3,0.2,0.4c0,0.1,0.1,0.1,0.1,0.1l0,0l0,0.1c0.1,0.2,0.1,0.3,0.2,0.5c0.1,0.1,0.1,0.3,0.2,0.4c0,0.1,0,0.1,0.1,0.2
			c0,0,0.1-0.2,0.1-0.2h0l0-0.1c0-0.1,0-0.2,0-0.3c0-0.1,0-0.2,0.1-0.2c0-0.1,0.1-0.1,0.1-0.2c-0.1,0-0.1-0.1-0.1-0.2
			c0-0.1,0-0.2,0-0.3l0,0c0,0,0,0,0-0.1c-0.1,0-0.2-0.1-0.2-0.1C43,22,43,22,42.9,22c0,0,0,0-0.1,0L42.5,22C42.5,22,42.5,22,42.5,22
			z M42.1,22.7c0,0,0.1,0.1,0.1,0.1c0,0,0.1,0.1,0.1,0.1c0,0,0-0.1-0.1-0.2c-0.1-0.1-0.1-0.3-0.2-0.5c0,0,0-0.1-0.1-0.1
			c0,0-0.1-0.1-0.1-0.1c0,0,0-0.1,0-0.1c0,0,0-0.1,0-0.1c0,0,0,0,0,0.1c0,0.1-0.1,0.1-0.1,0.2c0,0-0.1,0-0.1,0h0l-0.1,0.1
			c0.1,0,0.2,0.1,0.2,0.2c0,0,0.1,0.1,0.2,0.1C41.9,22.5,42,22.6,42.1,22.7L42.1,22.7L42.1,22.7z M44.2,21.9c0.1,0,0.1,0,0.1,0
			c0,0,0,0,0.1,0c0.1-0.1,0.1-0.1,0-0.1c0,0,0-0.1,0-0.1c0,0-0.1,0.1-0.1,0.1c0,0,0,0,0,0.1C44.2,21.7,44.2,21.8,44.2,21.9
			C44.2,21.8,44.1,21.9,44.2,21.9L44.2,21.9z M42.5,21.2C42.5,21.2,42.5,21.2,42.5,21.2c-0.1,0.1-0.1,0.1-0.1,0.1c0,0,0,0,0,0
			c0,0,0.1,0,0.1,0c0,0,0.1,0,0.1,0C42.6,21.3,42.6,21.2,42.5,21.2C42.6,21.2,42.6,21.2,42.5,21.2L42.5,21.2L42.5,21.2z M40.7,20.8
			c0.2,0,0.4,0.1,0.6,0.2l0,0l0,0c0,0,0.1-0.1,0.1-0.1c-0.1-0.1-0.2-0.3-0.3-0.4l-0.1-0.1c-0.1,0-0.2,0-0.3,0h0l0,0
			c-0.1,0-0.2,0.1-0.2,0.2l0,0.1l0,0c0,0-0.1,0-0.2,0c-0.1,0-0.2,0-0.3-0.1h0v0l0,0c0.2,0,0.3,0,0.4,0.1c0,0,0,0,0.1-0.1
			C40.5,20.8,40.5,20.8,40.7,20.8L40.7,20.8z M43,20.7C43,20.7,43,20.7,43,20.7c-0.1,0.1-0.1,0.2-0.2,0.3c0,0,0,0,0,0c0,0,0,0,0.1,0
			c0,0,0.1,0,0.1,0h0.1h0.1c0-0.1,0-0.1,0.1-0.2c0,0-0.1,0-0.1,0L43,20.7z M39.7,17.8c0,0.1,0.1,0.2,0.2,0.3
			c0.1,0.2,0.3,0.4,0.5,0.6l0,0c0-0.1,0-0.2,0-0.2c0,0,0,0,0-0.1l-0.1,0c-0.1,0-0.1,0-0.2-0.1c-0.1-0.1-0.1-0.1-0.2-0.2
			c0-0.1-0.1-0.2-0.1-0.3c0,0,0-0.1,0-0.1c0,0,0.1-0.1,0.1-0.1c0.1,0,0.1-0.1,0.1-0.1c0,0,0,0-0.1,0c-0.1,0-0.1,0-0.2-0.1
			c0,0-0.1-0.1-0.1-0.1c0-0.1,0-0.2,0-0.3c0,0-0.1,0.1-0.1,0.1c0,0.1-0.1,0.1-0.1,0.2c0,0.1,0,0.2,0,0.2c0,0,0,0.1,0,0.1L39.7,17.8z
			 M18.5,17.3c0,0.1,0,0.2,0,0.2c0,0.2,0,0.3,0,0.5c0-0.1,0.1-0.1,0.1-0.2c0-0.1,0.1-0.1,0.1-0.2c-0.1,0-0.1-0.1-0.1-0.2
			C18.6,17.4,18.6,17.3,18.5,17.3C18.6,17.3,18.5,17.3,18.5,17.3z M39.1,16.9c0,0.1,0.1,0.2,0.1,0.2C39.2,17,39.1,16.9,39.1,16.9z
			 M40.2,16.3c0,0-0.1,0.1-0.1,0.1c0,0,0,0,0,0C40.2,16.5,40.2,16.4,40.2,16.3C40.3,16.4,40.2,16.3,40.2,16.3L40.2,16.3z M36,15.1
			C36,15.1,36.1,15.2,36,15.1l0.2,0.2l0,0l0,0C36.1,15.2,36.1,15.1,36,15.1C36,15.1,36,15.1,36,15.1z M36.6,14.8
			c0,0,0.1,0.1,0.1,0.1c0-0.1,0-0.3,0-0.3c-0.1-0.1-0.2-0.1-0.3-0.2c0,0.1,0.1,0.2,0.1,0.2C36.5,14.7,36.5,14.8,36.6,14.8
			C36.5,14.8,36.5,14.8,36.6,14.8z"/>
		<path id="Vector_52" class="st3" d="M45,39.8c-0.1,0-0.1,0-0.2-0.1c-0.1,0-0.1-0.1-0.2-0.1c-0.1,0-0.2,0-0.2,0h-0.1
			c-0.1,0-0.1,0-0.2-0.1c-0.1,0-0.1-0.1-0.1-0.2l0,0c0,0,0-0.1-0.1-0.1h0v-1.5l0.1,0c0.1,0,0.1,0,0.2,0c0.1,0,0.1,0,0.2,0
			c0.1,0,0.1,0.2,0.1,0.2c0,0,0,0,0,0.1l0.1,0c0,0,0.1,0,0.1-0.1c0,0,0.1,0,0.1-0.1c0.1-0.1,0.2-0.1,0.3-0.1c0,0,0.1,0,0.1,0
			c0.1,0.1,0.2,0.2,0.1,0.4c0,0,0,0,0,0.1c0,0,0.1,0,0.1,0c0.1,0,0.2-0.1,0.3-0.1c0.1,0,0.1,0,0.2,0.1s0.1,0.1,0.1,0.2
			c0,0,0,0.1,0,0.1c0,0,0,0.1,0,0.1c0,0.1,0,0.2-0.1,0.3c-0.1,0.1-0.1,0.2-0.3,0.2l0,0c0,0-0.1,0-0.1,0v0c0,0.1,0,0.1,0,0.2
			c0,0.1,0,0.1-0.1,0.1c-0.1,0.1-0.1,0.1-0.2,0.2C45.2,39.8,45.1,39.8,45,39.8L45,39.8z"/>
		<path id="Vector_53" class="st3" d="M39.7,21L39.7,21l-0.1-0.1c0-0.1,0-0.1,0.1-0.2l0.1-0.1l0.1,0.1c0,0,0.1,0.1,0.1,0.1
			c0,0,0,0.1,0,0.1c0,0,0,0.1,0,0.1l0,0L39.7,21z"/>
		<path id="Vector_54" class="st2" d="M40.9,43.3c0,0-0.1,0-0.1,0c-0.1,0-0.2-0.1-0.2-0.2c0,0-0.1-0.1-0.1-0.1l0-0.1
			c0,0-0.1,0-0.1,0c-0.1,0-0.1,0-0.2-0.1c-0.1,0-0.1-0.1-0.1-0.2c0,0,0,0,0,0c0,0,0,0-0.1,0.1c0,0-0.1,0-0.1,0c0,0-0.1,0-0.1,0
			c0,0-0.1,0-0.1,0c-0.2-0.1-0.2-0.3-0.2-0.5c0-0.1,0-0.2,0-0.3c-0.1,0-0.1,0-0.2,0.1c-0.1,0-0.1,0-0.2,0c0,0-0.1,0-0.1,0l-0.1,0
			l0-0.1c0,0-0.1-0.1-0.1-0.1c-0.1-0.1-0.2-0.3-0.3-0.4c-0.1-0.1-0.2-0.1-0.3-0.2c-0.1,0-0.2,0-0.3,0c-0.2,0-0.3,0-0.5,0.1l-0.1,0
			v-1.1l0.2,0.5c0.1,0,0.2-0.1,0.3-0.1c0.1,0,0.1,0,0.2-0.1c0.1,0,0.1,0,0.2-0.1c0,0,0-0.1,0-0.1c0,0,0-0.1,0.1-0.1
			c0.1-0.2,0.2-0.4,0.4-0.5c0,0,0,0,0.1,0c0,0,0.1,0,0.1,0c0.1,0,0.1,0,0.1,0c0,0,0,0,0.1,0.1c0,0,0,0,0-0.1c0,0,0.2-0.5,0.4-0.5
			h0.1l0,0l0,0c0-0.1,0-0.3,0.1-0.4c0,0,0-0.1,0-0.1c0-0.1,0-0.1,0.1-0.1l0.1-0.1l0.1-0.1c0.1-0.1,0.1-0.1,0.2-0.1
			c0.1,0,0.2,0.1,0.3,0.2c0,0,0.1,0.1,0.1,0.1v0c0,0,0.1,0,0.1-0.1c0,0,0.1-0.1,0.1-0.1v0l0.1,0h0.1c0.2,0,0.3,0.1,0.4,0.3
			c0,0.1,0,0.2,0,0.4c0,0,0,0.1,0,0.1c0,0,0.1,0,0.1,0c0.1,0,0.2,0.1,0.2,0.1c0,0,0.1,0.1,0.1,0.1c0,0,0,0.1,0,0.1c0,0,0,0.1,0,0.1
			c0,0-0.1,0.1-0.1,0.1l0,0.1h-0.1c-0.1,0.1-0.1,0.1-0.2,0.1c0,0-0.1,0-0.1,0c0,0.1-0.1,0.1-0.1,0.2c0,0.1-0.1,0.1-0.1,0.2
			c0,0.1-0.1,0.1-0.2,0.2c-0.1,0-0.1,0-0.2,0h-0.2c0,0,0,0-0.1,0c0,0,0,0.1-0.1,0.1c0,0.1,0,0.1-0.1,0.1l0,0.1h0
			c0,0.1-0.1,0.1-0.2,0.1c0,0-0.1,0-0.1,0l0.1,0c0.1,0,0.2,0.1,0.3,0.1h0c0.1,0,0.1,0,0.2-0.1c0.1-0.1,0.2-0.1,0.3-0.1
			c0.1,0,0.1,0,0.2,0c0,0,0,0,0.1,0c0,0,0,0,0,0.1c0,0,0,0.1,0,0.1c0,0,0,0.1,0,0.1c0,0,0,0,0,0.1c0,0,0.1-0.1,0.2-0.1
			c0,0,0,0,0.1,0c0,0,0.1,0,0.1,0c0.1,0,0.2,0,0.2,0.1c0,0,0.1,0.1,0.1,0.1c0,0,0,0.1,0,0.1c0,0.1,0,0.2,0,0.3c0,0.2-0.1,0.2,0,0.3
			c0.1,0,0.1,0.1,0.1,0.2c0,0,0,0.1,0,0.1c0,0,0,0.1,0,0.1s0,0.1,0,0.1c0,0.1-0.1,0.2-0.1,0.3c-0.1,0.2-0.3,0.3-0.5,0.4
			C41,43.2,41,43.2,40.9,43.3z M38.9,40.8c-0.2,0-0.2,0-0.2,0c0.1,0,0.2,0,0.4,0c0.1,0,0.2,0,0.3,0h0h0c0,0-0.1,0-0.1,0
			C39.1,40.8,39,40.8,38.9,40.8z"/>
		<path id="Vector_55" class="st0" d="M36,20.3v13c0,1.7-0.8,1.9-1.9,1.9h-0.7c-0.9,0-1.8,0.1-2.7,0.8l-1.4,1.4l-1.3-1.2
			c-0.8-0.7-1.7-0.8-2.6-0.8H25c-1.2,0-2.3-0.1-2.3-2.1v-13H36z M36.9,19.4H21.8v13.9c0,3,2.2,3,3.2,3h0.4c0.8,0,1.5,0,2,0.5
			l1.3,1.2l0.7,0.7l0.7-0.7l1.3-1.4c0.5-0.4,1.2-0.5,2-0.5h0.7c0.7,0,1.6-0.1,2.2-0.7c0.5-0.5,0.7-1.2,0.7-2.2L36.9,19.4L36.9,19.4z
			"/>
		<path id="Vector_56" class="st2" d="M26.9,35.1c-0.1,0-0.2,0-0.3,0c-0.2-0.1-0.4-0.3-0.5-0.5c-0.1-0.2-0.1-0.5-0.1-0.7
			c0.1-0.2,0.1-0.4,0.3-0.6c0.1-0.2,0.2-0.3,0.4-0.5c0.3-0.3,0.7-0.5,1.2-0.7l0.1,0c0.1,0,0.2-0.1,0.2-0.1l0.2-0.1l0.1,0
			c0,0,0.1,0,0.1,0c0.1,0,0.1,0,0.2,0c0.1,0,0.2,0,0.3-0.1l-1.3-2.5c-2.3-4.5-2.4-4.6-2.6-4.9c-0.1-0.1-0.2-0.3-0.3-0.4
			c-0.1-0.1-0.2-0.1-0.3-0.2c-0.2-0.1-0.4-0.1-0.5-0.2l-0.3-0.1c0,0,0,0-0.1,0c0,0,0,0,0-0.1c0,0,0,0,0-0.1c0,0,0,0,0.1,0h0.3
			c0.8,0,1.6,0,2.4,0l1.5,0c0.1,0,0.3,0.2,0.4,0.3c0.1,0.2,0.2,0.4,0.3,0.6l0,0.1c0,0,0,0,0,0c0,0,0,0,0,0.1c0,0,0,0-0.1,0h0
			c0,0,0,0,0,0c-0.1,0-0.1,0-0.2-0.1c0,0-0.1-0.1-0.1-0.1c-0.1-0.1-0.3-0.2-0.5-0.2c0,0-0.1,0-0.1,0c0,0,0,0,0,0.1
			c0,0.1,0.1,0.2,0.1,0.3l0,0.1c0.9,1.7,1.7,3.3,2.5,5c0.8-1.7,1.3-2.9,1.7-3.7c0.7-1.6,0.8-1.7,0.8-1.8c0-0.1,0-0.1,0-0.1
			c-0.1,0-0.2,0.1-0.3,0.1c-0.3,0.3-0.3,0.4-0.4,0.4c0,0,0,0-0.1,0c0,0,0,0,0,0c0-0.1,0-0.1,0-0.2c0-0.1,0-0.1,0.1-0.2
			c0-0.2,0.1-0.5,0.4-0.5c0,0,0.1,0,0.1,0c0.1,0,0.1,0,0.2,0c0.1,0,0.1,0,0.2,0c0.2,0,0.4,0,0.6,0c0.2,0,0.3,0,0.5,0
			c0.1,0,0.3,0,0.4-0.1c0.1,0,0.2,0,0.3-0.1h0c0,0,0,0,0.1,0c0,0,0,0,0,0.1c0,0.1,0,0.1-0.1,0.2c-0.5,0.3-0.9,0.6-1.1,0.9
			c-0.3,0.7-0.7,1.3-1,2c-0.4,0.9-0.9,1.8-1.3,2.7l-0.8,1.5l-1.1,2.2c-0.1,0.1-0.3,0.5-0.3,0.5c-0.2,0.4-0.5,0.8-0.8,1.1
			c-0.2,0.2-0.4,0.4-0.7,0.6c0,0-0.2,0.1-0.2,0.1c-0.1,0.1-0.2,0.1-0.3,0.1c-0.1,0-0.1,0.1-0.2,0.1C27.1,35.1,27,35.1,26.9,35.1z
			 M28.9,32.4C28.9,32.4,28.8,32.4,28.9,32.4c-0.3,0-0.4,0.1-0.6,0.2l-0.1,0.1c-0.1,0-0.2,0.1-0.3,0.1c-0.4,0.2-1.1,0.7-1.2,1.2
			c0,0.1,0,0.1,0,0.2l0.1,0c0.1,0,0.1,0,0.2,0c0.3,0,0.6-0.2,0.8-0.4C28.3,33.3,28.8,32.7,28.9,32.4L28.9,32.4z"/>
		<path id="Vector_57" class="st2" d="M31.4,16.1v-0.4h0.3V15c-0.1,0-0.2,0-0.2,0h-0.1c-0.2,0-0.5,0-0.7,0.2l-0.1,0.1l-0.1-0.6l0,0
			c0.1-0.2,0.1-0.2,0.2-0.4c0.2-0.4,0.4-0.8,0.6-1.1c0.2-0.3,0.4-0.6,0.7-0.9c0.1-0.1,0.2-0.2,0.2-0.3l0.1-0.1l0.3,0.2l0,0.1
			c-0.1,0.3-0.1,0.6-0.1,0.9v1.2c0.1,0,0.2-0.1,0.3-0.1l0.2-0.2l-0.2,1.2L32.5,15c0,0-0.1,0-0.1,0l0,0v0.7h0.3v0.4H31.4z M31.7,13.2
			c0,0.1-0.1,0.1-0.1,0.2l-0.1,0.1c-0.2,0.3-0.3,0.5-0.3,0.7l0.2,0c0.1,0,0.2,0,0.3,0V13.2z"/>
		<path id="Vector_58" class="st2" d="M29.5,16.2c-0.1,0-0.1,0-0.1-0.1c-0.3-0.2-0.9-1.2-0.9-2.4c0-0.6,0.2-1.2,0.5-1.8l0.1-0.2
			c0.1-0.1,0.1-0.2,0.3-0.3c0,0,0.1,0,0.1,0c0.4,0,1,1.8,1,2.5C30.4,14.8,29.9,16.2,29.5,16.2z M29.1,12.4c-0.2,0.2-0.2,0.5-0.2,0.7
			c0,0.5,0.3,1.3,0.6,1.7c0.1,0.1,0.1,0.2,0.2,0.3c0.1-0.2,0.2-0.4,0.2-0.6c0-0.5-0.3-1.4-0.6-1.9C29.3,12.6,29.2,12.5,29.1,12.4z"
			/>
		<path id="Vector_59" class="st2" d="M27.4,16.2c-0.3,0-1-0.8-1-1.6c0-0.2,0-0.4,0.1-0.5c0.1-0.2,0.2-0.3,0.3-0.5
			c-0.2-0.2-0.3-0.5-0.3-0.8c0-0.7,0.5-1.4,0.9-1.5h0.1c0.3,0,0.9,0.7,0.9,1.3c0,0.3-0.1,0.7-0.4,0.9c0.2,0.2,0.3,0.3,0.4,0.5
			c0.1,0.2,0.1,0.4,0.1,0.7C28.5,15.4,27.8,16.1,27.4,16.2L27.4,16.2L27.4,16.2z M27.6,15.2c0.1,0.1,0.1,0.1,0.2,0.2
			c0.1-0.1,0.1-0.2,0.1-0.3c0-0.4-0.2-0.6-0.5-0.8l0,0c-0.1-0.1-0.2-0.2-0.2-0.2C27.1,14,27,14.1,27,14.2c0,0.3,0.2,0.6,0.4,0.8
			C27.5,15.1,27.5,15.1,27.6,15.2l-0.1,0L27.6,15.2L27.6,15.2L27.6,15.2z M27.2,12.1c0,0-0.1,0.1-0.1,0.1c0,0,0,0.1,0,0.1
			c0,0.3,0.2,0.6,0.4,0.8c0.1,0.1,0.1,0.1,0.2,0.2c0.1-0.1,0.1-0.2,0.1-0.3c0-0.3-0.2-0.6-0.4-0.8C27.3,12.2,27.3,12.1,27.2,12.1z"
			/>
		<path id="Vector_60" class="st2" d="M25,16.1v-0.4h0.3V13c0-0.1,0-0.2,0-0.3c-0.1,0-0.1,0-0.2,0l-0.1,0.1l0-0.4l0.1,0
			c0.3-0.1,0.6-0.3,0.9-0.5l0.2-0.2v4.1h0.3v0.4L25,16.1z"/>
		<path id="Vector_61" class="st3" d="M35.8,45.2l0.4-1.2c0,0-0.7,0.1-0.7-0.2l-0.1,1.3L35.8,45.2z"/>
		<path id="Vector_62" class="st4" d="M13.7,40.2c-0.2-0.4-1.4-1.9-0.7-2.8c0.9-1.2,2.1,0.8,1.2,2.3C14,40.2,14,40.6,13.7,40.2z"/>
		<path id="Vector_63" class="st4" d="M46.5,44.5h-0.8l-0.5-4.4l2,0.4L46.5,44.5z"/>
		<path id="Vector_64" class="st5" d="M46.5,44.7h-0.8c0,0-0.1,0-0.1,0c0,0,0,0,0-0.1l-0.5-4.4c0,0,0,0,0-0.1c0,0,0,0,0,0
			c0,0,0,0,0,0c0,0,0,0,0.1,0l2,0.4c0,0,0.1,0,0.1,0c0,0,0,0.1,0,0.1l-0.8,4C46.6,44.6,46.6,44.6,46.5,44.7
			C46.6,44.6,46.6,44.7,46.5,44.7z M45.9,44.4h0.6l0.7-3.8l-1.7-0.3L45.9,44.4z"/>
		<path id="Vector_65" class="st4" d="M48.1,40.9l-1.2,5c-0.3,0.3-0.6,0.3-0.8-0.2l0.5-4.3L48.1,40.9z"/>
		<path id="Vector_66" class="st0" d="M46.5,46.3c-0.2,0-0.4-0.2-0.5-0.4c0,0,0,0,0-0.1l0.5-4.3c0,0,0,0,0-0.1c0,0,0,0,0.1,0
			l1.5-0.5c0,0,0,0,0.1,0c0,0,0,0,0.1,0c0,0,0,0,0,0c0,0,0,0,0,0.1l-1.2,5c0,0,0,0,0,0.1C46.9,46.2,46.7,46.3,46.5,46.3z M46.3,45.8
			c0.1,0.2,0.2,0.3,0.3,0.3c0.1,0,0.1,0,0.3-0.2l1.1-4.8l-1.2,0.4L46.3,45.8z"/>
		<path id="Vector_67" class="st4" d="M14.6,38.2c0.2-1.2-0.2-2.1-1-2c-0.8,0-1.2,1.4-0.8,2c0.5,0.6,0.8-0.2,0.9-0.3l0.1,1.9
			L14.6,38.2z"/>
		<path id="Vector_68" class="st0" d="M13.9,39.8L13.9,39.8C13.8,39.8,13.8,39.8,13.9,39.8c-0.1-0.1-0.1-0.1-0.1-0.1l-0.1-1.5
			c0,0.1-0.1,0.1-0.2,0.2c-0.1,0-0.2,0.1-0.2,0.1c-0.1,0-0.2,0-0.2-0.1c-0.1,0-0.1-0.1-0.2-0.2c-0.3-0.4-0.3-1-0.1-1.4
			c0.2-0.4,0.5-0.7,0.9-0.8h0.1c0.1,0,0.3,0,0.4,0.1c0.1,0.1,0.2,0.1,0.3,0.2c0.3,0.4,0.5,1,0.4,1.8c0,0,0,0,0,0L14,39.8
			C13.9,39.8,13.9,39.8,13.9,39.8C13.9,39.8,13.9,39.8,13.9,39.8z M13.8,37.7C13.8,37.7,13.8,37.7,13.8,37.7
			c0.1,0.1,0.1,0.1,0.1,0.1l0.1,1.5l0.6-1.1c0.1-0.7,0-1.3-0.3-1.7c-0.1-0.1-0.1-0.1-0.2-0.2c-0.1,0-0.2-0.1-0.3-0.1h0
			c-0.3,0-0.6,0.3-0.7,0.6c-0.2,0.4-0.2,0.9,0,1.2c0,0,0.1,0.1,0.1,0.1c0,0,0.1,0,0.2,0.1C13.5,38.3,13.6,37.9,13.8,37.7
			C13.7,37.8,13.7,37.8,13.8,37.7C13.7,37.7,13.7,37.7,13.8,37.7z"/>
		<path id="Vector_69" class="st4" d="M12.2,44.5H13l0.5-4.4l-2,0.4L12.2,44.5z"/>
		<path id="Vector_70" class="st5" d="M13,44.6h-0.8c0,0-0.1,0-0.1,0c0,0,0,0,0-0.1l-0.8-4c0,0,0-0.1,0-0.1c0,0,0,0,0.1,0l2-0.4
			c0,0,0,0,0.1,0s0,0,0,0c0,0,0,0,0,0c0,0,0,0,0,0.1l-0.5,4.4C13.1,44.6,13.1,44.6,13,44.6C13.1,44.6,13,44.6,13,44.6z M12.3,44.4
			h0.6l0.4-4.1l-1.7,0.3L12.3,44.4z"/>
		<path id="Vector_71" class="st4" d="M10.7,40.9c0.4,1.7,0.8,3.3,1.2,5c0.3,0.3,0.6,0.3,0.8-0.2l-0.5-4.3L10.7,40.9z"/>
		<path id="Vector_72" class="st0" d="M12.2,46.3c-0.2,0-0.4-0.1-0.5-0.2c0,0,0,0,0-0.1l-1.2-5c0,0,0,0,0-0.1c0,0,0,0,0,0
			c0,0,0,0,0.1,0c0,0,0,0,0.1,0l1.5,0.5c0,0,0,0,0.1,0c0,0,0,0,0,0.1l0.5,4.3c0,0,0,0,0,0.1C12.6,46.1,12.4,46.3,12.2,46.3z
			 M11.9,45.9c0.1,0.1,0.2,0.2,0.3,0.2c0.1,0,0.2-0.1,0.3-0.3L12,41.5l-1.2-0.4L11.9,45.9z"/>
		<path id="Vector_73" class="st4" d="M22.4,42.2c-0.2,0.4-0.3,0.8-0.4,1.2c-0.3,1.1,2,2.2,2.2,0.7C24.2,43,23.4,42.3,22.4,42.2z"/>
		<path id="Vector_74" class="st5" d="M23.4,44.9c-0.3,0-0.5-0.1-0.7-0.2c-0.2-0.1-0.4-0.3-0.6-0.5c-0.1-0.1-0.2-0.3-0.2-0.4
			c0-0.2,0-0.3,0-0.5c0-0.1,0.1-0.2,0.1-0.4c0.1-0.3,0.2-0.5,0.3-0.8c0,0,0,0,0,0c0,0,0,0,0.1,0c1,0.1,1.9,0.7,1.9,1.9
			C24.2,44.6,23.9,44.9,23.4,44.9z M22.5,42.4c-0.1,0.2-0.2,0.5-0.2,0.7c0,0.1-0.1,0.3-0.1,0.4c0,0.1,0,0.2,0,0.4s0.1,0.2,0.2,0.3
			c0.1,0.2,0.3,0.3,0.5,0.4c0.2,0.1,0.4,0.2,0.6,0.2c0.3,0,0.6-0.1,0.7-0.6C24.1,43,23.3,42.5,22.5,42.4z"/>
		<path id="Vector_75" class="st4" d="M12.7,37.6l0.4,2l0.7,0.1c0-0.7-0.1-1.4-0.1-2.1C13.5,38.7,12.9,38.2,12.7,37.6z"/>
		<path id="Vector_76" class="st0" d="M13.9,39.7L13.9,39.7l-0.7-0.1c0,0,0,0-0.1,0c0,0,0,0,0-0.1l-0.4-2c0,0,0-0.1,0-0.1
			c0,0,0,0,0.1,0c0,0,0.1,0,0.1,0c0,0,0,0,0.1,0.1c0.1,0.3,0.3,0.6,0.5,0.6c0.2,0,0.3-0.2,0.4-0.6c0,0,0,0,0-0.1c0,0,0,0,0.1,0
			c0,0,0.1,0,0.1,0c0,0,0,0,0,0.1l0.1,2c0,0,0,0,0,0C14,39.7,14,39.7,13.9,39.7C13.9,39.7,13.9,39.7,13.9,39.7L13.9,39.7z
			 M13.2,39.5l0.5,0l-0.1-1.4c0,0.1-0.1,0.1-0.2,0.2c-0.1,0-0.1,0.1-0.2,0.1c-0.1,0-0.3-0.1-0.4-0.2L13.2,39.5z"/>
		<path id="Vector_77" class="st4" d="M13,43.4c0.6-0.1,0.7-0.4,1.2-0.5l0.4-4.9c-0.7,2-2.1,1.1-3.2,1.3c-1.1,0.2-0.9,1.7-0.5,2.4
			c0.4,0.7,0.9,0.4,1.1,0c0.2-0.4-0.1-0.7,0.2-1.1c0.3-0.5,1.5,0.2,0.7,1.2c-0.1,0.1-0.4,0.3-0.4,0.5C12.6,42.5,12.8,43.4,13,43.4z"
			/>
		<path id="Vector_78" class="st0" d="M13,43.5L13,43.5c-0.4-0.1-0.5-1.1-0.5-1.3c0-0.1,0-0.2,0.1-0.3c0.1-0.1,0.1-0.2,0.2-0.2
			c0,0,0.1-0.1,0.1-0.1c0.2-0.3,0.3-0.6,0.2-0.8c0-0.1-0.1-0.2-0.2-0.2c-0.1-0.1-0.2-0.1-0.3-0.1c0,0-0.1,0-0.1,0c0,0-0.1,0-0.1,0.1
			c-0.1,0.1-0.1,0.2-0.1,0.3c0,0.1,0,0.2,0,0.3c0,0.2,0,0.4-0.1,0.6c-0.1,0.1-0.2,0.2-0.3,0.3c-0.1,0.1-0.3,0.1-0.4,0.1
			c-0.2,0-0.4-0.1-0.6-0.5c-0.2-0.5-0.5-1.4-0.1-2c0.1-0.1,0.2-0.3,0.3-0.4s0.3-0.2,0.4-0.2c0.3,0,0.6,0,1,0c0.2,0,0.4,0,0.6,0
			c0.6,0,1.2-0.2,1.6-1.3c0,0,0,0,0.1-0.1c0,0,0.1,0,0.1,0c0,0,0.1,0,0.1,0c0,0,0,0,0,0.1l-0.4,4.9c0,0,0,0,0,0.1c0,0,0,0-0.1,0
			c-0.2,0-0.4,0.1-0.6,0.3C13.5,43.4,13.3,43.5,13,43.5L13,43.5z M12.6,40.3c0.1,0,0.3,0.1,0.4,0.1c0.1,0.1,0.2,0.2,0.3,0.3
			c0.1,0.2,0.2,0.6-0.2,1c0,0-0.1,0.1-0.1,0.1c-0.1,0-0.1,0.1-0.1,0.1c0,0.1-0.1,0.1-0.1,0.2c0,0.3,0.2,1,0.3,1.1
			c0.2,0,0.4-0.1,0.5-0.3c0.2-0.1,0.4-0.2,0.6-0.3l0.4-4.2c-0.1,0.3-0.4,0.5-0.6,0.6s-0.6,0.2-0.9,0.2c-0.2,0-0.4,0-0.6,0
			c-0.3,0-0.6,0-0.9,0c-0.1,0-0.2,0.1-0.4,0.1c-0.1,0.1-0.2,0.2-0.2,0.3c-0.3,0.5-0.1,1.4,0.1,1.8c0.1,0.2,0.2,0.4,0.4,0.4
			c0.1,0,0.2-0.1,0.3-0.1c0.1-0.1,0.2-0.1,0.2-0.2c0.1-0.1,0.1-0.3,0.1-0.4c0-0.1,0-0.3,0-0.4c0-0.1,0.1-0.2,0.2-0.3
			c0-0.1,0.1-0.1,0.2-0.2C12.4,40.3,12.5,40.3,12.6,40.3L12.6,40.3z"/>
		<path id="Vector_79" class="st4" d="M22.4,42.2c-0.1,0.4-0.2,0.8-0.4,1.1c0.4-0.9,1.1-0.5,1.2,0.5l0.5-1c-0.2-0.2-0.4-0.4-0.6-0.5
			C22.9,42.3,22.6,42.2,22.4,42.2z"/>
		<path id="Vector_80" class="st0" d="M23.2,43.9L23.2,43.9C23.2,43.9,23.1,43.9,23.2,43.9c-0.1-0.1-0.1-0.1-0.1-0.1
			C23,43.3,22.8,43,22.5,43c-0.2,0-0.3,0.1-0.4,0.4c0,0,0,0.1-0.1,0.1c0,0-0.1,0-0.1,0c0,0-0.1,0-0.1-0.1c0,0,0-0.1,0-0.1
			c0.1-0.2,0.1-0.4,0.2-0.6c0.1-0.2,0.1-0.4,0.2-0.6c0,0,0,0,0-0.1c0,0,0,0,0.1,0c0.3,0,0.5,0,0.8,0.2c0.3,0.1,0.5,0.3,0.6,0.5
			c0,0,0,0,0,0.1s0,0,0,0.1l-0.5,1C23.3,43.9,23.3,43.9,23.2,43.9C23.3,43.9,23.2,43.9,23.2,43.9z M22.5,42.8c0.3,0,0.6,0.3,0.7,0.7
			l0.3-0.6c-0.1-0.2-0.3-0.3-0.5-0.4c-0.2-0.1-0.4-0.1-0.6-0.1c0,0.2-0.1,0.3-0.1,0.5C22.4,42.8,22.5,42.8,22.5,42.8L22.5,42.8z"/>
		<path id="Vector_81" class="st4" d="M12.6,42.3c0.1,1.1,0.3,2.7,0.4,3.8c1.5,2.2,6.1-3.7,9.2-3.9c0.3,0,0.5,0,0.8,0.1
			c0.2,0.1,0.5,0.2,0.7,0.4c0.2,0.2,0.3,0.4,0.4,0.7c0.1,0.2,0.1,0.5,0.1,0.8c0.2-0.8,0.9-3,0.8-3.7c-0.4-1.6-1.6-2-2.7-2.1
			C18.4,38,12.7,44.9,12.6,42.3z"/>
		<path id="Vector_82" class="st0" d="M13.9,46.7c-0.2,0-0.4,0-0.6-0.1c-0.2-0.1-0.3-0.2-0.4-0.4c0,0,0,0,0-0.1
			c-0.1-0.5-0.1-1.2-0.2-1.9c-0.1-0.6-0.1-1.2-0.2-1.7c0-0.1,0-0.1,0-0.2c0,0,0-0.1,0-0.1s0,0,0.1,0c0,0,0,0,0,0c0,0,0,0,0,0
			c0,0,0,0,0,0c0,0,0,0,0,0l0,0.2c0,0.3,0.2,0.3,0.3,0.3c0.5,0,1.5-0.7,2.7-1.6c2-1.4,4.5-3.1,6.5-2.9c1.5,0.1,2.4,0.9,2.8,2.2
			c0.1,0.5-0.3,1.8-0.6,2.9c-0.1,0.4-0.2,0.7-0.2,0.9c0,0,0,0.1,0,0.1c0,0-0.1,0-0.1,0c0,0-0.1,0-0.1,0c0,0,0,0,0-0.1
			c0-0.2,0-0.5-0.1-0.7c-0.1-0.2-0.2-0.4-0.4-0.6c-0.2-0.2-0.4-0.3-0.6-0.4c-0.2-0.1-0.5-0.1-0.7-0.1c-1.4,0.1-3,1.2-4.5,2.4
			C16.3,45.7,14.9,46.7,13.9,46.7z M13.1,46.1c0.1,0.1,0.2,0.2,0.4,0.3c0.1,0.1,0.3,0.1,0.5,0.1c0.9,0,2.2-0.9,3.6-1.9
			c1.6-1.1,3.2-2.3,4.7-2.4c0.3,0,0.6,0,0.9,0.1c0.3,0.1,0.5,0.3,0.7,0.5c0.2,0.2,0.4,0.5,0.5,0.8l0.1-0.3c0.3-0.9,0.7-2.3,0.5-2.8
			c-0.3-1.2-1.2-1.9-2.6-2c-2-0.2-4.4,1.6-6.4,2.9C14.6,42.3,13.6,43,13,43c-0.1,0-0.2,0-0.3-0.1c0,0.4,0.1,0.8,0.1,1.3
			C13,44.9,13,45.5,13.1,46.1z"/>
		<path id="Vector_83" class="st4" d="M44.1,38.2c-0.2-1.2,0.2-2.1,1-2c0.8,0,1.2,1.4,0.8,2C45.4,38.8,45,38,45,37.9l-0.1,1.9
			L44.1,38.2z"/>
		<path id="Vector_84" class="st0" d="M44.9,39.8C44.9,39.8,44.9,39.8,44.9,39.8c-0.1,0-0.1,0-0.1-0.1L44,38.3c0,0,0,0,0,0
			c-0.1-0.8,0-1.5,0.3-1.8c0.1-0.1,0.2-0.2,0.3-0.2c0.1-0.1,0.2-0.1,0.4-0.1h0c0.4,0,0.7,0.3,0.9,0.8c0.2,0.5,0.2,1-0.1,1.4
			c0,0.1-0.1,0.1-0.2,0.2c-0.1,0-0.2,0.1-0.3,0.1c-0.1,0-0.2,0-0.2-0.1c-0.1,0-0.1-0.1-0.2-0.2L45,39.7C45,39.8,45,39.8,44.9,39.8
			C45,39.8,44.9,39.8,44.9,39.8L44.9,39.8z M44.2,38.2l0.6,1.1l0.1-1.5c0,0,0-0.1,0-0.1s0,0,0.1,0c0,0,0.1,0,0.1,0c0,0,0,0,0,0.1
			c0,0.1,0.2,0.4,0.4,0.4c0.1,0,0.1,0,0.2-0.1c0,0,0.1-0.1,0.1-0.1c0.2-0.3,0.2-0.7,0-1.2c-0.2-0.4-0.4-0.6-0.7-0.6h0
			c-0.1,0-0.2,0-0.3,0.1c-0.1,0-0.2,0.1-0.2,0.2C44.2,36.9,44.1,37.5,44.2,38.2L44.2,38.2z"/>
		<path id="Vector_85" class="st4" d="M46,37.6l-0.4,2l-0.7,0.1c0-0.7,0.1-1.4,0.1-2.1C45.3,38.6,45.6,38.6,46,37.6z"/>
		<path id="Vector_86" class="st0" d="M44.9,39.8C44.9,39.8,44.8,39.8,44.9,39.8c-0.1,0-0.1-0.1-0.1-0.1c0,0,0,0,0,0l0.1-2.1
			c0,0,0-0.1,0-0.1c0,0,0,0,0.1,0c0,0,0.1,0,0.1,0c0,0,0,0,0,0.1c0.2,0.6,0.3,0.7,0.4,0.7c0,0,0.2,0,0.5-0.7c0,0,0,0,0,0
			c0,0,0,0,0,0c0,0,0,0,0,0c0,0,0,0,0,0c0,0,0,0,0,0c0,0,0,0,0,0c0,0,0,0,0,0c0,0,0,0,0,0l-0.4,2c0,0,0,0,0,0.1c0,0,0,0-0.1,0
			L44.9,39.8L44.9,39.8z M45.1,38.1L45,39.5l0.5,0l0.3-1.2c0,0-0.1,0.1-0.1,0.1c-0.1,0-0.1,0-0.2,0.1C45.3,38.4,45.2,38.3,45.1,38.1
			L45.1,38.1z"/>
		<path id="Vector_87" class="st4" d="M45.7,43.5c-0.6-0.1-0.6-0.4-1.2-0.5L44.1,38c0.7,2,2.1,1.1,3.2,1.3c1.1,0.2,0.9,1.7,0.5,2.4
			c-0.4,0.7-1,0.3-1.2-0.1c-0.2-0.4,0.2-0.5-0.3-1.1C46,40,45,40.8,45.8,41.7c0.1,0.1,0.4,0.3,0.4,0.5C46.2,42.5,46,43.4,45.7,43.5z
			"/>
		<path id="Vector_88" class="st0" d="M45.7,43.6L45.7,43.6c-0.3,0-0.5-0.1-0.7-0.3c-0.2-0.1-0.4-0.2-0.6-0.3c0,0,0,0-0.1,0
			c0,0,0,0,0-0.1L44,38c0,0,0-0.1,0-0.1c0,0,0,0,0.1,0c0,0,0.1,0,0.1,0c0,0,0,0,0.1,0.1c0.4,1.1,1,1.3,1.6,1.3c0.2,0,0.4,0,0.6,0
			c0.3,0,0.6,0,1,0c0.2,0,0.3,0.1,0.4,0.2c0.1,0.1,0.2,0.2,0.3,0.4c0.3,0.6,0.1,1.6-0.1,2c-0.2,0.4-0.4,0.4-0.6,0.4
			c-0.2,0-0.3-0.1-0.4-0.2c-0.1-0.1-0.2-0.2-0.3-0.3c-0.1-0.1-0.1-0.3-0.1-0.4c0-0.1,0-0.2,0-0.3c0-0.1-0.1-0.2-0.2-0.3
			c-0.2-0.2-0.5-0.1-0.7,0.1c-0.1,0.3-0.1,0.6,0.2,0.9c0,0,0.1,0.1,0.1,0.1c0.1,0.1,0.2,0.1,0.2,0.2c0.1,0.1,0.1,0.2,0.1,0.3
			C46.3,42.4,46.1,43.5,45.7,43.6L45.7,43.6z M44.6,42.8c0.2,0.1,0.4,0.1,0.6,0.3c0.2,0.1,0.3,0.2,0.5,0.2c0.1-0.1,0.3-0.8,0.3-1.1
			c0-0.1,0-0.1-0.1-0.2c0-0.1-0.1-0.1-0.1-0.1c0,0-0.1-0.1-0.1-0.1c-0.3-0.4-0.4-0.8-0.2-1.1c0.1-0.1,0.1-0.2,0.2-0.3
			c0.1-0.1,0.2-0.1,0.4-0.1c0.1,0,0.2,0,0.3,0.1c0.1,0,0.1,0.1,0.2,0.2c0.1,0.1,0.2,0.2,0.2,0.4c0,0.1,0,0.3,0,0.4
			c0,0.1,0,0.1,0,0.2c0,0.1,0,0.1,0.1,0.1c0.1,0.1,0.1,0.2,0.2,0.3c0.1,0.1,0.2,0.1,0.3,0.1c0.2,0,0.3-0.1,0.4-0.3
			c0.2-0.4,0.4-1.3,0.1-1.8c-0.1-0.1-0.1-0.2-0.2-0.3c-0.1-0.1-0.2-0.1-0.4-0.1c-0.3,0-0.6,0-0.9,0c-0.2,0-0.4,0-0.6,0
			c-0.3,0-0.6,0-0.9-0.2s-0.5-0.4-0.6-0.6L44.6,42.8z"/>
		<path id="Vector_89" class="st4" d="M36.3,42.3c0.1,0.4,0.3,0.8,0.4,1.1c0.3,1.1-2,2.2-2.2,0.7C34.5,43,35.4,42.4,36.3,42.3z"/>
		<path id="Vector_90" class="st0" d="M35.3,44.9c-0.5,0-0.8-0.3-0.9-0.8c0-1.2,0.9-1.9,1.9-2c0,0,0,0,0.1,0c0,0,0,0,0,0
			c0.1,0.3,0.2,0.5,0.3,0.8c0,0.1,0.1,0.3,0.1,0.4c0,0.2,0,0.3,0,0.5c0,0.2-0.1,0.3-0.2,0.4c-0.2,0.2-0.4,0.4-0.6,0.5
			C35.8,44.9,35.6,44.9,35.3,44.9z M36.3,42.4c-0.8,0.1-1.6,0.7-1.6,1.7c0.1,0.5,0.4,0.6,0.7,0.6c0.2,0,0.4-0.1,0.6-0.2
			c0.2-0.1,0.4-0.2,0.5-0.4c0.1-0.1,0.1-0.2,0.2-0.3c0-0.1,0-0.2,0-0.4c0-0.1-0.1-0.2-0.1-0.4C36.4,42.8,36.4,42.6,36.3,42.4z"/>
		<path id="Vector_91" class="st4" d="M46.1,42.3c-0.1,1.1-0.3,2.8-0.4,3.8c-1.6,2.2-6.1-3.7-9.2-3.9c-0.3,0-0.5,0-0.8,0.1
			c-0.2,0.1-0.5,0.2-0.7,0.4c-0.2,0.2-0.3,0.4-0.4,0.7c-0.1,0.2-0.1,0.5-0.1,0.8c-0.2-0.8-0.9-3-0.8-3.7c0.4-1.6,1.6-2,2.7-2.1
			C40.3,38,46.1,44.9,46.1,42.3z"/>
		<path id="Vector_92" class="st0" d="M44.8,46.7c-1,0-2.3-1-3.7-2c-1.6-1.1-3.2-2.3-4.5-2.4c-0.2,0-0.5,0-0.7,0.1
			c-0.2,0.1-0.4,0.2-0.6,0.4s-0.3,0.4-0.4,0.6c-0.1,0.2-0.1,0.5-0.1,0.7c0,0,0,0,0,0c0,0,0,0.1,0,0.1c0,0-0.1,0-0.1,0
			c0,0-0.1,0-0.1,0c0,0,0,0,0-0.1c0-0.2-0.1-0.5-0.2-0.9c-0.3-1.1-0.7-2.4-0.6-2.9c0.3-1.3,1.3-2.1,2.8-2.2c2-0.2,4.5,1.6,6.5,2.9
			c1.2,0.8,2.2,1.5,2.7,1.5c0.1,0,0.3,0,0.3-0.3l0-0.2c0,0,0,0,0,0c0,0,0,0,0,0c0,0,0,0,0,0c0,0,0,0,0,0c0,0,0.1,0,0.1,0
			c0,0,0,0,0,0.1c0,0.1,0,0.1,0,0.2c0,0.5-0.1,1.1-0.2,1.7c-0.1,0.7-0.1,1.4-0.2,1.9c0,0,0,0,0,0.1c-0.1,0.2-0.3,0.3-0.4,0.4
			C45.2,46.7,45,46.7,44.8,46.7L44.8,46.7z M36.4,42.1h0.1c1.4,0.1,3.1,1.3,4.7,2.4c1.4,1,2.7,1.9,3.6,1.9c0.2,0,0.3,0,0.5-0.1
			c0.1-0.1,0.3-0.2,0.4-0.3c0.1-0.5,0.1-1.2,0.2-1.9c0-0.4,0.1-0.9,0.1-1.3c-0.1,0-0.2,0.1-0.3,0.1c-0.6,0-1.6-0.7-2.9-1.6
			c-2-1.4-4.4-3.1-6.4-2.9c-1.4,0.1-2.3,0.8-2.6,2c-0.1,0.4,0.3,1.8,0.5,2.8l0.1,0.3c0.1-0.3,0.2-0.6,0.5-0.8
			c0.2-0.2,0.4-0.3,0.7-0.4S36.1,42.1,36.4,42.1z"/>
		<path id="Vector_93" class="st4" d="M34.5,43.8c0,0,0.4,3,0,4.3c-0.1,0.3,1.1,0.6,2,0.2c0.9-0.3,1.6-1.3,2.1-2
			c1.4-2.1-1.7-2-2.5-1.8C35.1,44.7,35.1,44.2,34.5,43.8z"/>
		<path id="Vector_94" class="st0" d="M35.5,48.6c-0.4,0-0.9-0.1-1.1-0.3c0,0,0-0.1,0-0.1c0,0,0-0.1,0-0.1c0.4-1.2,0-4.2,0-4.2
			c0,0,0,0,0-0.1c0,0,0,0,0,0c0,0,0,0,0.1,0c0,0,0,0,0.1,0c0.1,0.1,0.2,0.2,0.4,0.3c0.2,0.2,0.3,0.4,0.7,0.4c0.1,0,0.3,0,0.4,0
			c0.3-0.1,0.7-0.1,1-0.1c0.7,0,1.6,0.1,1.9,0.7c0.2,0.4,0.1,0.8-0.3,1.4c-0.5,0.7-1.2,1.7-2.2,2.1C36.2,48.5,35.9,48.6,35.5,48.6z
			 M34.7,44.1c0.1,0.8,0.3,3-0.1,4c0,0,0,0,0,0c0.1,0.1,0.4,0.2,0.9,0.2c0.3,0,0.6-0.1,0.9-0.2c0.9-0.3,1.6-1.3,2.1-2
			c0.3-0.5,0.4-0.9,0.3-1.2c-0.3-0.5-1.2-0.5-1.7-0.5c-0.3,0-0.7,0-1,0.1c-0.1,0-0.3,0-0.4,0.1c-0.5,0-0.7-0.2-0.9-0.5L34.7,44.1z"
			/>
		<path id="Vector_95" class="st4" d="M36.4,42.3c0.1,0.4,0.2,0.8,0.4,1.1c-0.4-0.9-1.1-0.5-1.2,0.5c-0.2-0.3-0.3-0.6-0.5-1
			c0.2-0.2,0.4-0.4,0.6-0.5C35.9,42.3,36.1,42.3,36.4,42.3z"/>
		<path id="Vector_96" class="st0" d="M35.5,44C35.5,44,35.5,44,35.5,44c-0.1,0-0.1,0-0.1-0.1l-0.5-1c0,0,0,0,0-0.1c0,0,0,0,0-0.1
			c0.2-0.2,0.4-0.4,0.6-0.5c0.2-0.1,0.5-0.2,0.8-0.2c0,0,0,0,0.1,0c0,0,0,0,0,0.1c0.1,0.2,0.1,0.4,0.2,0.6c0.1,0.2,0.1,0.4,0.2,0.6
			c0,0,0,0.1,0,0.1c0,0,0,0-0.1,0.1c0,0-0.1,0-0.1,0c0,0,0,0-0.1-0.1c-0.1-0.3-0.3-0.4-0.4-0.4c-0.2,0-0.5,0.3-0.6,0.8
			C35.7,43.9,35.6,43.9,35.5,44C35.6,43.9,35.6,44,35.5,44L35.5,44z M35.2,42.9l0.3,0.6c0.1-0.4,0.4-0.7,0.7-0.7
			c0.1,0,0.2,0,0.2,0.1c-0.1-0.2-0.1-0.3-0.1-0.5c-0.2,0-0.4,0.1-0.6,0.1C35.5,42.6,35.3,42.7,35.2,42.9z"/>
		<path id="Vector_97" class="st4" d="M24.2,43.7c0.1,0-0.1,2.2,0,3.5c0,0.1,0.1,0.8,0.1,0.9c-0.2,0.3-1.3,0.5-2,0.2
			c-0.9-0.3-1.6-1.3-2.1-2c-1.4-2.1,1.7-2,2.5-1.8C23.6,44.7,23.5,43.7,24.2,43.7z"/>
		<path id="Vector_98" class="st0" d="M23,48.5c-0.3,0-0.6,0-0.9-0.1c-1-0.4-1.7-1.3-2.2-2.1c-0.4-0.6-0.5-1-0.3-1.4
			c0.3-0.5,1.2-0.7,1.9-0.7c0.3,0,0.7,0,1,0.1c0.1,0,0.2,0,0.2,0c0.3,0,0.5-0.2,0.6-0.4s0.3-0.4,0.7-0.4c0,0,0.1,0,0.1,0
			c0.1,0.1,0.1,0.3,0,1.4c0,0.7-0.1,1.6,0,2.2c0,0,0,0.1,0,0.1c0.1,0.7,0.1,0.8,0,0.9C24.1,48.4,23.6,48.5,23,48.5z M21.6,44.5
			c-0.5,0-1.4,0.1-1.7,0.5c-0.2,0.3-0.1,0.7,0.3,1.2c0.5,0.7,1.2,1.6,2.1,2c0.3,0.1,0.5,0.1,0.8,0.1c0.5,0,0.9-0.1,1.1-0.3
			c0-0.2,0-0.5-0.1-0.7c0-0.1,0-0.1,0-0.1c0-0.6,0-1.5,0-2.2c0-0.5,0-1,0-1.2c-0.2,0-0.3,0.2-0.4,0.3c-0.2,0.2-0.4,0.5-0.8,0.5
			c-0.1,0-0.2,0-0.3,0C22.2,44.5,21.9,44.5,21.6,44.5z"/>
		<path id="Vector_99" class="st4" d="M38.7,46.1c0,0-1.2,2-1.1,2.8c0,0-0.3,0.8-0.8,0.1c0,0,0.5-2.1,0.6-2.7
			C37.4,46.2,38.1,46.8,38.7,46.1z"/>
		<path id="Vector_100" class="st0" d="M37.2,49.4c-0.2,0-0.3-0.1-0.5-0.4c0,0,0,0,0,0c0,0,0,0,0,0c0,0,0.5-2.1,0.6-2.7
			c0,0,0,0,0-0.1c0,0,0,0,0,0c0,0,0,0,0.1,0c0,0,0,0,0.1,0c0.2,0.1,0.3,0.2,0.5,0.2c0.1,0,0.2,0,0.3-0.1c0.1-0.1,0.2-0.1,0.3-0.2
			c0,0,0,0,0.1,0c0,0,0.1,0,0.1,0c0,0,0,0,0,0.1c0,0,0,0.1,0,0.1c0,0-1.1,2-1.1,2.7c0,0,0,0,0,0.1C37.7,48.9,37.6,49.4,37.2,49.4z
			 M37,48.9c0.1,0.1,0.2,0.2,0.3,0.2c0.1,0,0.2-0.2,0.3-0.3c-0.1-0.6,0.5-1.7,0.8-2.3c-0.1,0-0.2,0.1-0.3,0.1
			c-0.2,0-0.4-0.1-0.5-0.2C37.4,47.1,37,48.6,37,48.9L37,48.9z"/>
		<path id="Vector_101" class="st4" d="M19.9,45.9c0,0,1.3,2.1,1.2,2.9c0,0,0.3,0.8,0.8,0.1c0,0-0.5-2.1-0.6-2.7
			c-0.2,0.1-0.5,0.2-0.7,0.1C20.2,46.3,20,46.1,19.9,45.9z"/>
		<path id="Vector_102" class="st0" d="M21.4,49.4c-0.3,0-0.5-0.4-0.5-0.5c0,0,0,0,0-0.1c0.1-0.6-0.8-2.3-1.1-2.9c0,0,0-0.1,0-0.1
			c0,0,0-0.1,0.1-0.1c0,0,0.1,0,0.1,0c0,0,0.1,0,0.1,0.1c0.1,0.1,0.2,0.2,0.3,0.3c0.1,0.1,0.3,0.1,0.4,0.1c0.2,0,0.3,0,0.5-0.1
			c0,0,0,0,0.1,0c0,0,0,0,0.1,0c0,0,0,0,0,0c0,0,0,0,0,0.1c0.1,0.7,0.6,2.7,0.6,2.7c0,0,0,0,0,0c0,0,0,0,0,0
			C21.8,49.2,21.6,49.4,21.4,49.4z M21.1,48.8c0,0.1,0.2,0.3,0.3,0.3c0.1,0,0.2-0.1,0.3-0.2c-0.1-0.3-0.4-1.8-0.5-2.5
			c-0.3,0.1-0.6,0.1-0.9,0C20.6,47,21.2,48.2,21.1,48.8L21.1,48.8z"/>
		<path id="Vector_103" class="st4" d="M21.1,46.1c-0.3-0.1-0.7-0.7,0.4-0.9c1-0.2,0.7,1.4,0.6,1.6c-0.3,0.3,0.1,0.7,0.2,0.8
			c0,0,0.1,0.5-0.4,0.5C21.3,48.1,21.4,46.1,21.1,46.1z"/>
		<path id="Vector_104" class="st0" d="M21.9,48.2c-0.4,0-0.5-0.7-0.6-1.3c0-0.3-0.1-0.7-0.2-0.7c-0.1,0-0.2-0.1-0.3-0.2
			c-0.1-0.1-0.1-0.2-0.1-0.3c0-0.2,0.1-0.5,0.8-0.6c0.2,0,0.3,0,0.5,0.1c0.1,0.1,0.3,0.2,0.3,0.4c0.2,0.5,0,1.2-0.1,1.3
			c0,0,0,0-0.1,0.1c0,0,0,0.1,0,0.1c0,0.2,0.1,0.4,0.3,0.5c0,0,0,0,0,0.1c0,0.1,0,0.2,0,0.3c0,0.1-0.1,0.2-0.1,0.2
			c0,0.1-0.1,0.1-0.2,0.1S22,48.2,21.9,48.2L21.9,48.2z M21.6,45.3c0,0-0.1,0-0.1,0c-0.4,0.1-0.6,0.2-0.6,0.4c0,0.1,0,0.1,0.1,0.2
			c0,0.1,0.1,0.1,0.2,0.1c0.2,0,0.3,0.3,0.4,0.9c0.1,0.4,0.2,1.1,0.4,1.1c0,0,0.1,0,0.1,0c0,0,0.1,0,0.1-0.1
			c0.1-0.1,0.1-0.2,0.1-0.3c-0.2-0.2-0.3-0.4-0.3-0.6c0-0.1,0-0.1,0-0.2c0-0.1,0.1-0.1,0.1-0.2c0.2-0.4,0.2-0.7,0.1-1.1
			c0-0.1-0.1-0.1-0.2-0.2C21.8,45.3,21.7,45.3,21.6,45.3z"/>
		<path id="Vector_105" class="st4" d="M37.4,46.2c0.2-0.1,0.8-0.9-0.2-1.1c-1-0.2-0.7,1.4-0.6,1.6c0.3,0.3-0.1,0.7-0.2,0.8
			c0,0,0.1,0.7,0.5,0.5C37.4,47.8,37.2,46.4,37.4,46.2z"/>
		<path id="Vector_106" class="st0" d="M36.8,48.2c-0.3,0-0.4-0.4-0.5-0.6c0,0,0,0,0,0c0,0,0,0,0,0c0.2-0.1,0.3-0.3,0.3-0.5
			c0,0,0-0.1,0-0.1c0,0,0-0.1-0.1-0.1c-0.1-0.1-0.3-0.9-0.1-1.3c0.1-0.2,0.2-0.3,0.3-0.4c0.1-0.1,0.3-0.1,0.5-0.1
			c0.5,0.1,0.6,0.3,0.7,0.5c0.1,0.4-0.3,0.7-0.4,0.8c-0.1,0.2-0.1,0.4-0.1,0.6c-0.1,0.5-0.1,1.1-0.4,1.2
			C36.9,48.2,36.9,48.2,36.8,48.2z M36.5,47.6c0,0.1,0.1,0.4,0.2,0.4c0,0,0.1,0,0.1,0c0.2-0.1,0.2-0.7,0.3-1c0-0.4,0.1-0.7,0.2-0.7
			c0.1-0.1,0.4-0.4,0.3-0.6c0-0.2-0.3-0.3-0.5-0.3c-0.1,0-0.2,0-0.3,0c-0.1,0-0.2,0.1-0.2,0.2c-0.1,0.4-0.1,0.8,0.1,1.1
			c0,0,0.1,0.1,0.1,0.2c0,0.1,0,0.1,0,0.2C36.8,47.2,36.7,47.4,36.5,47.6L36.5,47.6z"/>
		<path id="Vector_107" class="st4" d="M29.2,47.1c-1.3,0-5,1-5,1c-0.1-0.6-0.3-4.1,0.1-4.5c0.2-0.1,2.5-1,5-1h0.2
			c2.1,0,4.8,1,5,1.1c0.6,0.4,0.2,3.9,0,4.3c0,0-3.8-1-4.8-1L29.2,47.1z"/>
		<path id="Vector_108" class="st0" d="M24.2,48.2C24.2,48.2,24.2,48.2,24.2,48.2C24.1,48.2,24.1,48.2,24.2,48.2
			c-0.1-0.1-0.1-0.1-0.1-0.1c0-0.3-0.4-4.2,0.2-4.6c0.2-0.2,2.6-1,5-1h0.2c2.1,0,4.8,0.9,5,1.1c0.6,0.5,0.3,4,0,4.5c0,0,0,0-0.1,0.1
			c0,0-0.1,0-0.1,0c0,0-3.8-1-4.7-1h-0.6C27.9,47.2,24.3,48.2,24.2,48.2L24.2,48.2z M29.3,42.8c-2.5,0-4.7,0.8-4.9,1
			C24.1,44,24.2,47,24.3,48c0.7-0.2,3.7-1,4.9-1h0.6c0.9,0,4.1,0.8,4.7,1c0.2-0.7,0.5-3.8,0-4.1c-0.2-0.1-2.8-1.1-4.9-1.1L29.3,42.8
			z"/>
		<path id="Vector_111" class="st2" d="M25.7,44.6l0.3-0.1c0.1,0,0.3-0.1,0.4-0.1c0.1,0,0.1,0,0.2,0.1c0,0,0.1,0.1,0.1,0.2
			c0,0.1,0.1,0.2,0.1,0.4l0.1,0.7c0,0.1,0,0.2,0,0.4c0,0.1,0,0.1,0,0.2c0,0-0.1,0.1-0.1,0.1c-0.1,0-0.2,0.1-0.2,0.1l-0.6,0.1
			L25.7,44.6L25.7,44.6z M26.2,44.8l0.3,1.3c0.1,0,0.1,0,0.1-0.1c0-0.1,0-0.2,0-0.2L26.4,45c0-0.1,0-0.1,0-0.2c0,0,0,0,0,0
			c0,0,0,0,0,0C26.3,44.8,26.2,44.8,26.2,44.8z M28.2,45.2l0-0.3c0-0.1,0-0.3-0.1-0.4c0-0.1-0.1-0.2-0.1-0.2
			c-0.1-0.1-0.1-0.1-0.2-0.1c-0.1,0-0.2,0-0.3,0c-0.1,0-0.2,0-0.3,0.1c-0.1,0.1-0.1,0.1-0.2,0.2c0,0.1,0,0.2,0,0.2
			c0,0.1,0,0.2,0,0.4l0,0.3c0,0.2,0.1,0.3,0.1,0.4c0,0.1,0.1,0.2,0.1,0.2c0.1,0.1,0.1,0.1,0.2,0.1c0.1,0,0.2,0,0.3,0
			c0.1,0,0.2-0.1,0.3-0.1c0.1,0,0.1-0.1,0.2-0.2c0-0.1,0-0.2,0-0.2C28.3,45.5,28.2,45.4,28.2,45.2L28.2,45.2z M27.7,44.6l0.1,0.9
			c0,0.1,0,0.1,0,0.2c0,0,0,0,0,0c0,0,0,0,0,0c0,0,0,0,0,0c0,0,0,0,0,0c0-0.1,0-0.1,0-0.2l-0.1-0.9c0-0.1,0-0.1,0-0.2c0,0,0,0,0,0
			c0,0,0,0,0,0c0,0,0,0,0,0c0,0,0,0,0,0C27.6,44.5,27.7,44.6,27.7,44.6L27.7,44.6z M29.5,44.8l-0.5,0l0-0.3c0-0.1,0-0.1,0-0.2
			c0,0,0,0,0,0c0,0,0,0,0,0c0,0,0,0,0,0c0,0,0,0,0,0c0,0.1,0,0.1,0,0.2l0,0.9c0,0.1,0,0.1,0,0.2c0,0,0,0,0,0c0,0,0,0,0,0
			c0,0,0,0,0,0c0,0,0,0,0,0c0-0.1,0-0.1,0-0.2l0-0.3l0.5,0v0.1c0,0.1,0,0.3,0,0.4c0,0.1-0.1,0.2-0.2,0.2C29.3,46,29.2,46,29,46
			c-0.1,0-0.2,0-0.3-0.1c-0.1,0-0.2-0.1-0.2-0.2c0-0.1-0.1-0.3-0.1-0.4l0-0.6c0-0.1,0-0.2,0-0.3c0-0.1,0-0.1,0.1-0.2
			c0-0.1,0.1-0.1,0.2-0.2c0.1,0,0.2-0.1,0.3-0.1c0.1,0,0.2,0,0.3,0.1c0.1,0,0.2,0.1,0.2,0.2c0,0.1,0.1,0.3,0.1,0.4L29.5,44.8
			L29.5,44.8z M29.8,43.9l0.8,0l0,0.4l-0.3,0l0,0.4l0.3,0l0,0.4l-0.3,0l0,0.4l0.3,0l0,0.4l-0.8,0L29.8,43.9L29.8,43.9z M30.9,44
			l0.3,0.1c0.1,0,0.3,0,0.4,0.1c0.1,0,0.1,0.1,0.2,0.2c0,0.1,0.1,0.3,0,0.4c0,0.1,0,0.2-0.1,0.3c0,0-0.1,0-0.1,0.1c0,0-0.1,0-0.1,0
			c0.1,0,0.1,0.1,0.2,0.1c0,0,0,0.1,0,0.1c0,0.1,0,0.2,0,0.3l-0.1,0.5l-0.4-0.1l0.1-0.7c0-0.1,0-0.1,0-0.2c0,0,0,0-0.1-0.1l-0.1,0.9
			L30.7,46L30.9,44L30.9,44z M31.3,44.5l0,0.4c0,0,0.1,0,0.1,0c0,0,0-0.1,0-0.1l0-0.1c0,0,0-0.1,0-0.1
			C31.4,44.5,31.4,44.5,31.3,44.5L31.3,44.5z M32.4,44.3l-0.5,1.9l0.8,0.3l0.1-0.4L32.4,46l0.1-0.4l0.3,0.1l0.1-0.4l-0.3-0.1
			l0.1-0.4L33,45l0.1-0.4L32.4,44.3z"/>
		<path id="Vector_112" class="st2" d="M36.5,39.5h0.8v0.4H37v0.4h0.3v0.4H37v0.4h0.4v0.4h-0.8L36.5,39.5L36.5,39.5z M38,39.7
			l0.3,0.1c0.2,0,0.3,0.1,0.4,0.2c0.1,0,0.1,0.1,0.2,0.2c0,0.1,0,0.3,0,0.4c0,0.1-0.1,0.2-0.1,0.3c0,0-0.1,0-0.1,0c0,0-0.1,0-0.1,0
			c0.1,0,0.1,0.1,0.2,0.2c0,0,0,0.1,0,0.1c0,0.1,0,0.2-0.1,0.3l-0.1,0.5l-0.4-0.1l0.2-0.6c0-0.1,0-0.1,0-0.2c0,0,0-0.1-0.1-0.1
			L38,41.7l-0.5-0.1L38,39.7L38,39.7z M38.4,40.1l-0.1,0.4c0,0,0.1,0,0.1,0c0,0,0-0.1,0.1-0.1l0-0.1c0,0,0-0.1,0-0.1
			C38.5,40.2,38.5,40.1,38.4,40.1z M40.6,40.8l-0.4-0.2l-0.6,1.3c0,0.1-0.1,0.1-0.1,0.2c0,0,0,0,0,0c0,0,0,0,0,0c0,0,0,0,0,0
			c0,0,0,0,0,0c0-0.1,0-0.1,0.1-0.2l0.6-1.3l-0.4-0.2l-0.5,1.1c-0.1,0.2-0.2,0.3-0.2,0.4c0,0.1,0,0.1,0,0.2c0,0.1,0.1,0.2,0.1,0.2
			c0.1,0.1,0.1,0.1,0.2,0.2c0.1,0,0.2,0.1,0.3,0.1c0.1,0,0.2,0,0.2,0c0.1,0,0.1-0.1,0.1-0.1c0.1-0.1,0.1-0.2,0.1-0.3L40.6,40.8z
			 M40.9,41l0.3,0.2c0.1,0.1,0.3,0.2,0.4,0.3c0.1,0.1,0.1,0.1,0.1,0.2s0,0.1,0,0.2c-0.1,0.1-0.1,0.2-0.2,0.3l-0.3,0.6
			c-0.1,0.1-0.1,0.2-0.2,0.3c0,0-0.1,0.1-0.1,0.1c-0.1,0-0.1,0-0.2,0c-0.1,0-0.2-0.1-0.2-0.1l-0.5-0.4L40.9,41L40.9,41z M41.1,41.6
			C41.1,41.6,41.2,41.6,41.1,41.6c0.1,0.1,0.1,0.1,0.1,0.1c0,0,0,0,0,0c0,0.1,0,0.1-0.1,0.2l-0.4,0.7c0,0.1-0.1,0.1-0.1,0.2
			c0,0-0.1,0-0.1,0L41.1,41.6L41.1,41.6z M42.4,42L42,41.8l-1,1.7l0.4,0.3L42.4,42z M42.5,42.2l-0.9,1.7l0.4,0.3l0.4-0.8
			c0.1,0,0.1,0.1,0.1,0.1c0,0.1,0,0.1-0.1,0.2l-0.3,0.6l0.4,0.2l0.2-0.5c0-0.1,0.1-0.2,0.1-0.3c0,0,0-0.1,0-0.1
			c0-0.1-0.1-0.1-0.1-0.2c0,0,0.1,0,0.1,0c0,0,0.1,0,0.1,0c0.1-0.1,0.2-0.1,0.2-0.2c0.1-0.1,0.1-0.2,0.1-0.4c0-0.1,0-0.2-0.1-0.2
			c-0.1-0.1-0.3-0.2-0.4-0.3L42.5,42.2L42.5,42.2z M42.8,42.7C42.8,42.7,42.9,42.8,42.8,42.7c0.1,0.1,0.1,0.2,0.1,0.2l0,0.1
			c0,0.1-0.1,0.1-0.1,0.1c0,0-0.1,0-0.1,0L42.8,42.7L42.8,42.7z M43.6,42.9l0.7,0.4l-0.2,0.4l-0.3-0.1l-0.1,0.3l0.3,0.1l-0.1,0.3
			l-0.3-0.1l-0.2,0.4l0.3,0.2l-0.2,0.4l-0.8-0.4L43.6,42.9z"/>
		<path id="Vector_113" class="st2" d="M14.5,44.5l-0.4,0.2L14,44.4c0-0.1,0-0.1-0.1-0.2c0,0,0,0,0,0s0,0,0,0c0,0,0,0,0,0
			c0,0,0,0,0,0c0,0.1,0,0.1,0,0.2l0.3,0.9c0,0.1,0,0.1,0.1,0.2c0,0,0,0,0,0c0,0,0,0,0,0c0,0,0,0,0,0c0,0,0,0,0,0
			c0-0.1,0-0.1-0.1-0.2L14.2,45l0.4-0.2l0,0.1c0.1,0.1,0.1,0.3,0.1,0.4c0,0.1,0,0.2-0.1,0.3c-0.1,0.1-0.1,0.2-0.3,0.2
			c-0.1,0.1-0.2,0.1-0.3,0.1c0,0-0.1,0-0.1,0c0,0-0.1-0.1-0.1-0.1c-0.1-0.1-0.1-0.3-0.2-0.4l-0.2-0.5c0-0.1-0.1-0.2-0.1-0.3
			c0-0.1,0-0.2,0-0.2c0-0.1,0.1-0.2,0.1-0.2c0.1-0.1,0.1-0.1,0.2-0.2c0.1-0.1,0.2-0.1,0.3-0.1c0,0,0.1,0,0.1,0c0,0,0.1,0.1,0.1,0.1
			c0.1,0.1,0.1,0.2,0.2,0.4L14.5,44.5L14.5,44.5z M15.6,44.1l-0.1-0.3c-0.1-0.2-0.1-0.3-0.2-0.4c0-0.1-0.1-0.1-0.2-0.2
			c-0.1,0-0.1-0.1-0.2,0c-0.1,0-0.2,0-0.2,0.1c-0.1,0.1-0.1,0.1-0.2,0.2c0,0.1-0.1,0.2-0.1,0.2c0,0.1,0,0.2,0,0.2
			c0,0.1,0.1,0.2,0.2,0.4l0.1,0.3c0.1,0.2,0.1,0.3,0.2,0.4c0,0.1,0.1,0.1,0.2,0.2c0.1,0,0.1,0.1,0.2,0c0.1,0,0.2,0,0.2-0.1
			c0.1-0.1,0.1-0.1,0.2-0.2c0-0.1,0.1-0.2,0.1-0.2c0-0.1,0-0.2,0-0.2C15.8,44.4,15.7,44.3,15.6,44.1L15.6,44.1z M15,43.8l0.4,0.8
			c0,0.1,0.1,0.1,0.1,0.2c0,0,0,0,0,0c0,0,0,0,0,0c0,0,0,0,0,0c0,0,0,0,0,0c0,0,0,0,0,0c0,0,0,0,0,0c0-0.1-0.1-0.1-0.1-0.2l-0.4-0.8
			c0-0.1,0-0.1-0.1-0.2c0,0,0,0,0,0c0,0,0,0,0,0c0,0,0,0,0,0c0,0,0,0,0,0C14.9,43.7,15,43.7,15,43.8z M16.4,43l-0.4,0.3L16,43.1
			c0-0.1-0.1-0.1-0.1-0.2c0,0,0,0,0,0c0,0,0,0,0,0c0,0,0,0,0,0c0,0,0,0,0,0c0,0.1,0,0.1,0.1,0.2l0.4,0.8c0,0.1,0.1,0.1,0.1,0.1
			c0,0,0,0,0,0c0,0,0,0,0,0c0,0,0,0,0,0c0,0,0,0,0,0c0-0.1,0-0.1-0.1-0.2l-0.1-0.2l-0.1,0.1l-0.1-0.3l0.4-0.3l0.4,0.9l-0.2,0.2
			l-0.1-0.1c0,0.1,0,0.1,0,0.2c0,0.1-0.1,0.1-0.1,0.1c-0.1,0-0.1,0.1-0.2,0.1c-0.1,0-0.1,0-0.2-0.1c-0.1,0-0.1-0.1-0.1-0.1
			c-0.1-0.1-0.1-0.2-0.1-0.3l-0.3-0.5c-0.1-0.1-0.1-0.2-0.2-0.4c0-0.1,0-0.2,0-0.3c0-0.1,0.1-0.2,0.2-0.3c0.1-0.1,0.2-0.1,0.3-0.1
			c0.1,0,0.2,0,0.2,0.1C16.3,42.7,16.3,42.8,16.4,43L16.4,43L16.4,43z M17.2,41.6l-0.3,0.2l0.4,0.8L16.6,42l-0.3,0.2l0.8,1.7
			l0.3-0.2l-0.4-0.8l0.6,0.7l0.3-0.2L17.2,41.6L17.2,41.6z M18.8,42c0.1,0.2,0.1,0.3,0.1,0.4c0,0.1,0,0.2,0,0.2
			c0,0.1-0.1,0.2-0.1,0.2c-0.1,0.1-0.1,0.1-0.2,0.2c-0.1,0-0.2,0.1-0.2,0.1c-0.1,0-0.1,0-0.2-0.1c-0.1,0-0.1-0.1-0.1-0.2
			c0-0.1-0.1-0.2-0.1-0.4l-0.1-0.3c-0.1-0.2-0.1-0.3-0.1-0.4c0-0.1,0-0.2,0-0.2c0-0.1,0.1-0.2,0.1-0.2c0.1-0.1,0.1-0.1,0.2-0.2
			c0.1,0,0.2-0.1,0.2-0.1c0.1,0,0.1,0,0.2,0.1c0.1,0,0.1,0.1,0.1,0.2c0,0.1,0.1,0.2,0.1,0.4L18.8,42L18.8,42z M18.2,41.6l0.3,0.9
			c0,0.1,0,0.1,0.1,0.2c0,0,0,0,0,0c0,0,0,0,0,0c0,0,0,0,0,0c0,0,0,0,0,0s0,0,0,0c0,0,0,0,0,0c0-0.1-0.1-0.1-0.1-0.2L18,41.6
			c0-0.1,0-0.1,0-0.2c0,0,0,0,0,0c0,0,0,0,0,0c0,0,0,0,0,0c0,0,0,0,0,0c0,0,0,0,0,0c0,0,0,0,0,0C18.1,41.5,18.2,41.5,18.2,41.6z
			 M19.6,40.9L19.6,40.9c0-0.2-0.1-0.3-0.1-0.4c0,0-0.1-0.1-0.1-0.1c0,0-0.1,0-0.1,0c-0.1,0-0.2,0-0.3,0c-0.1,0-0.2,0.1-0.2,0.2
			c-0.1,0.1-0.1,0.1-0.1,0.2c0,0.1,0,0.2,0,0.3c0,0.1,0.1,0.2,0.1,0.2c0,0,0.1,0.1,0.1,0.1c0.1,0,0.2,0.1,0.3,0.1
			c0.1,0,0.2,0.1,0.2,0.1c0.1,0.1,0.1,0.1,0.1,0.2c0,0,0,0.1,0,0.1c0,0,0,0,0,0c0,0,0,0,0,0c0,0,0,0,0,0s0,0,0,0c0,0,0-0.1-0.1-0.1
			l-0.1-0.2l-0.4,0.1l0,0.1c0,0.1,0.1,0.2,0.1,0.3c0,0.1,0.1,0.1,0.2,0.1c0.1,0,0.2,0,0.3,0c0.1,0,0.2-0.1,0.2-0.2
			c0.1-0.1,0.1-0.1,0.1-0.2c0-0.1,0-0.2,0-0.3c0-0.1-0.1-0.3-0.2-0.4c-0.1-0.1-0.3-0.2-0.4-0.2c-0.1,0-0.1,0-0.1-0.1
			c0,0,0-0.1-0.1-0.1c0,0,0-0.1,0-0.1c0,0,0,0,0,0c0,0,0,0,0,0c0,0,0,0,0,0c0,0,0,0,0,0c0,0,0,0.1,0,0.1l0,0.1L19.6,40.9L19.6,40.9z
			 M20.9,40.7l-0.4,0.1l-0.1-0.3c0-0.1,0-0.1,0-0.2c0,0,0,0,0,0c0,0,0,0,0,0c0,0,0,0,0,0c0,0,0,0,0,0c0,0.1,0,0.1,0,0.2l0.1,0.9
			c0,0.1,0,0.1,0,0.2c0,0,0,0,0,0c0,0,0,0,0,0c0,0,0,0,0,0c0,0,0,0,0,0c0-0.1,0-0.1,0-0.2l0-0.2l0.4-0.1l0,0.1c0,0.1,0,0.3,0,0.4
			c0,0.1-0.1,0.2-0.1,0.3c-0.1,0.1-0.2,0.1-0.3,0.2c-0.1,0-0.2,0-0.3,0c0,0-0.1,0-0.1-0.1c0,0-0.1-0.1-0.1-0.1
			c-0.1-0.1-0.1-0.3-0.1-0.4l-0.1-0.6c0-0.1,0-0.3,0-0.3c0-0.1,0-0.2,0-0.2c0-0.1,0.1-0.1,0.1-0.2c0.1-0.1,0.2-0.1,0.2-0.1
			c0.1,0,0.2,0,0.3,0c0.1,0,0.2,0.1,0.2,0.2c0.1,0.1,0.1,0.3,0.1,0.4L20.9,40.7L20.9,40.7z M21,39.7l0.7-0.1l0,0.4l-0.3,0l0,0.4
			l0.3,0l0,0.4l-0.3,0l0,0.4l0.3,0l0,0.4l-0.8,0.1L21,39.7L21,39.7z M22.3,39.5l0.3,0c0.1,0,0.3,0,0.4,0.1c0.1,0,0.1,0.1,0.2,0.2
			c0,0.1,0.1,0.3,0,0.4c0,0.1,0,0.2-0.1,0.3c0,0-0.1,0-0.1,0.1c0,0-0.1,0-0.1,0c0.1,0,0.1,0.1,0.2,0.1c0,0,0,0.1,0,0.1
			c0,0.1,0,0.2,0,0.3l-0.1,0.5l-0.4-0.1l0.1-0.7c0-0.1,0-0.1,0-0.2c0,0,0,0-0.1-0.1l-0.1,0.9l-0.4-0.1L22.3,39.5L22.3,39.5z
			 M22.7,39.9l0,0.4c0,0,0.1,0,0.1,0c0,0,0-0.1,0-0.2l0-0.1c0,0,0-0.1,0-0.1C22.8,39.9,22.7,39.9,22.7,39.9z M23.7,39.8l-0.5,1.9
			l0.7,0.3l0.1-0.4l-0.3-0.1l0.1-0.4l0.3,0.1l0.1-0.4l-0.3-0.1l0.1-0.4l0.3,0.1l0.1-0.4L23.7,39.8z"/>
		<path class="st0" d="M13.2,42.9c-0.1,0-0.1-0.1-0.1-0.1v-1.6c0-0.1,0.1-0.1,0.1-0.1s0.1,0.1,0.1,0.1v1.6
			C13.3,42.8,13.3,42.9,13.2,42.9z"/>
		<path class="st0" d="M45.5,42.9c-0.1,0-0.1-0.1-0.1-0.1v-1.6c0-0.1,0.1-0.1,0.1-0.1s0.1,0.1,0.1,0.1v1.6
			C45.6,42.8,45.6,42.9,45.5,42.9z"/>
	</g>
</g>
</svg>
